<?xml version="1.0" standalone="no"?>
<!DOCTYPE svg PUBLIC "-//W3C//DTD SVG 20010904//EN"
 "http://www.w3.org/TR/2001/REC-SVG-20010904/DTD/svg10.dtd">
<svg version="1.0" xmlns="http://www.w3.org/2000/svg"
 width="3464.000000pt" height="3464.000000pt" viewBox="0 0 3464.000000 3464.000000"
 preserveAspectRatio="xMidYMid meet">

<g transform="translate(0.000000,3464.000000) scale(0.100000,-0.100000)"
fill="#000000" stroke="none">
<path d="M0 17320 l0 -17320 17320 0 17320 0 0 17320 0 17320 -17320 0 -17320
0 0 -17320z m20133 7125 c-5 -15 -53 -45 -70 -45 -10 1 59 59 69 60 4 0 5 -7
1 -15z m5382 -465 c-3 -5 -21 -9 -38 -9 l-32 1 30 8 c43 11 47 11 40 0z
m-1505 -190 c11 -7 12 -10 2 -10 -8 0 -25 -9 -39 -20 -46 -36 -113 -24 -113
20 0 19 124 27 150 10z m-4070 -1740 c0 -19 -17 -36 -27 -26 -3 3 -2 17 1 31
7 28 26 25 26 -5z m-429 -93 c-8 -8 -11 -2 -11 19 0 40 14 54 18 19 2 -15 -1
-32 -7 -38z m-205 -54 c-11 -11 -19 6 -11 24 8 17 8 17 12 0 3 -10 2 -21 -1
-24z m-211 -63 c-3 -5 -11 -10 -16 -10 -6 0 -7 5 -4 10 3 6 11 10 16 10 6 0 7
-4 4 -10z m-15365 -185 c0 -3 -12 -10 -26 -16 -15 -5 -25 -12 -22 -15 3 -2 17
0 31 5 14 5 27 7 30 4 9 -8 -16 -31 -29 -26 -11 4 -13 -1 -18 -57 -4 -42 6
-57 45 -65 44 -10 79 16 79 60 0 24 -7 39 -22 49 -25 18 -17 21 13 6 13 -7 19
-7 19 0 0 5 -6 10 -14 10 -8 0 -18 5 -22 11 -5 9 1 10 20 5 34 -8 33 -1 -1 18
-16 8 -23 15 -17 16 39 1 89 -80 80 -131 -3 -13 -5 -28 -5 -34 -1 -5 -15 -25
-31 -44 l-30 -34 -2 -551 c-1 -324 -5 -483 -8 -386 l-6 165 -2 -122 c-2 -102
-5 -123 -17 -123 -11 0 -15 11 -15 40 0 33 -3 40 -20 40 -16 0 -20 -7 -20 -34
0 -19 5 -37 10 -39 6 -3 5 -4 -2 -3 -7 1 -14 19 -16 39 -4 51 -22 47 -22 -6
l0 -42 -45 3 -45 4 -1 -43 -2 -44 -7 40 c-6 36 -7 32 -9 -30 -2 -38 -6 -92
-10 -120 -7 -50 -7 -50 -15 36 -5 47 -6 209 -5 361 l4 275 28 41 c19 27 44 47
73 59 27 11 46 26 49 38 8 35 10 413 3 408 -5 -2 -8 0 -8 6 0 6 -11 21 -25 33
-43 40 -42 125 1 172 22 23 54 35 54 21z m40 -5 c0 -5 -2 -10 -4 -10 -3 0 -8
5 -11 10 -3 6 -1 10 4 10 6 0 11 -4 11 -10z m17346 -262 c3 -4 17 -3 30 2 20
8 24 6 24 -10 0 -17 -7 -20 -52 -20 -38 0 -49 -3 -41 -11 6 -6 32 -10 57 -8
25 3 46 1 46 -3 0 -5 -24 -8 -54 -8 -45 0 -54 -3 -52 -17 1 -13 12 -19 45 -23
63 -7 63 -26 1 -22 -32 3 -50 0 -50 -7 0 -6 19 -11 45 -11 43 0 45 -1 44 -27
-2 -24 -2 -25 -6 -5 -4 18 -11 22 -42 22 l-38 0 1 -46 0 -45 40 7 c23 3 37 2
33 -2 -9 -10 -14 -11 -52 -13 -18 -1 -25 -7 -25 -21 0 -15 7 -20 25 -20 29 0
32 -12 9 -31 -14 -11 -18 -10 -30 6 -10 14 -14 55 -14 156 0 76 2 144 5 151 6
14 39 18 51 6z m-16829 -24 c-3 -3 -12 -4 -19 -1 -8 3 -5 6 6 6 11 1 17 -2 13
-5z m-43 -17 c-3 -10 4 -12 30 -9 38 4 60 -15 24 -22 -48 -9 -68 -3 -68 21 0
13 4 23 10 23 5 0 7 -6 4 -13z m-889 -14 c-16 -9 -35 -23 -42 -32 -7 -9 -12
-11 -13 -4 0 16 49 53 69 53 9 -1 4 -7 -14 -17z m130 -25 c19 -22 19 -22 -10
2 -48 40 -51 43 -30 32 11 -6 29 -21 40 -34z m722 18 c-9 -7 -17 -18 -17 -25
0 -6 -5 -11 -11 -11 -11 0 -4 15 19 43 8 9 18 14 21 11 3 -3 -2 -11 -12 -18z
m136 -1 c-3 -9 -8 -14 -10 -11 -3 3 -2 9 2 15 9 16 15 13 8 -4z m-980 -12 c-7
-2 -13 -13 -13 -23 0 -10 -4 -22 -10 -25 -5 -3 -10 -13 -10 -21 0 -9 -7 -22
-15 -30 -13 -14 -15 -14 -15 0 0 9 4 16 9 16 5 0 13 15 16 33 8 37 22 57 39
56 7 0 6 -2 -1 -6z m82 -2 c3 -5 2 -12 -3 -15 -5 -3 -9 1 -9 9 0 17 3 19 12 6z
m775 -21 c0 -11 -4 -20 -9 -20 -7 0 -8 17 -2 38 4 10 11 -2 11 -18z m147 4
c-3 -3 -12 -4 -19 -1 -8 3 -5 6 6 6 11 1 17 -2 13 -5z m-897 -8 c0 -3 -4 -8
-10 -11 -5 -3 -10 -1 -10 4 0 6 5 11 10 11 6 0 10 -2 10 -4z m17463 -3 c-7 -2
-19 -2 -25 0 -7 3 -2 5 12 5 14 0 19 -2 13 -5z m-17613 -12 c0 -6 -4 -13 -10
-16 -5 -3 -10 1 -10 9 0 9 5 16 10 16 6 0 10 -4 10 -9z m162 -23 c-8 -8 -9 -4
-5 13 4 13 8 18 11 10 2 -7 -1 -18 -6 -23z m908 28 c0 -3 -4 -8 -10 -11 -5 -3
-10 -1 -10 4 0 6 5 11 10 11 6 0 10 -2 10 -4z m-905 -123 c-18 -17 -30 -35
-26 -40 3 -4 -3 -1 -13 7 -18 14 -18 14 -9 -5 14 -25 12 -74 -2 -72 -14 3 -19
-74 -5 -83 6 -4 13 -56 17 -126 4 -93 3 -117 -7 -108 -8 8 -11 36 -8 83 1 39
0 71 -4 71 -5 0 -8 -33 -8 -72 0 -86 -8 -127 -21 -106 -6 9 -9 7 -9 -9 0 -27
-19 -31 -22 -5 -1 9 -4 -14 -8 -53 -4 -45 -7 2 -7 130 0 111 3 180 7 155 l7
-45 1 43 c1 23 7 42 12 42 6 0 11 17 11 38 l2 37 7 -40 7 -40 2 44 c1 38 -1
43 -18 38 -10 -2 -25 -1 -32 3 -10 7 -10 11 1 25 12 14 15 14 37 -6 12 -13 23
-17 23 -11 0 7 -4 12 -10 12 -5 0 -10 6 -10 13 0 7 -9 13 -20 14 -11 1 -20 -3
-20 -9 0 -6 -13 14 -28 43 -32 60 -33 74 -2 38 20 -22 21 -23 15 -3 -5 20 -2
21 40 17 29 -3 45 -1 45 6 0 6 6 11 13 11 21 0 57 35 58 56 1 11 5 1 9 -21 7
-37 5 -43 -25 -72z m881 48 c-10 -11 -15 -25 -11 -30 10 -17 -6 -36 -17 -20
-5 9 -6 5 -2 -13 3 -15 2 -33 -2 -40 -4 -7 -8 -114 -7 -238 1 -129 -2 -206 -7
-180 l-7 45 -1 -42 c-1 -24 -6 -43 -12 -43 -5 0 -10 -18 -10 -39 0 -22 -4 -43
-10 -46 -5 -3 -10 -22 -10 -41 0 -24 -5 -34 -15 -34 -13 0 -15 -30 -17 -202
-2 -112 -2 -228 -2 -258 1 -37 -1 -49 -7 -35 -10 24 -10 1147 0 1140 4 -2 7 6
7 18 -1 16 4 21 19 20 29 -4 67 6 61 16 -7 10 28 43 37 35 3 -3 3 5 0 18 -5
22 -5 22 13 6 17 -17 17 -18 0 -37z m15264 29 c0 -5 -9 -10 -21 -10 -11 0 -17
5 -14 10 3 6 13 10 21 10 8 0 14 -4 14 -10z m1510 -14 c0 -2 -11 -6 -25 -8
-14 -3 -25 -1 -25 3 0 5 11 9 25 9 14 0 25 -2 25 -4z m-16896 -21 c11 -8 15
-15 9 -15 -7 0 -15 5 -18 11 -4 6 -14 8 -22 5 -8 -3 -11 -1 -8 4 8 13 16 12
39 -5z m132 -22 c-10 -10 -19 5 -10 18 6 11 8 11 12 0 2 -7 1 -15 -2 -18z
m15474 17 c0 -5 -7 -10 -15 -10 -8 0 -15 5 -15 10 0 6 7 10 15 10 8 0 15 -4
15 -10z m1300 -8 c0 -5 -13 -7 -30 -4 -16 2 -30 6 -30 8 0 2 14 4 30 4 17 0
30 -4 30 -8z m-16930 -23 c-7 -11 -14 -19 -16 -16 -7 7 7 37 17 37 6 0 5 -9
-1 -21z m77 15 c-3 -3 -12 -4 -19 -1 -8 3 -5 6 6 6 11 1 17 -2 13 -5z m19503
-54 c-6 -11 -13 -20 -15 -20 -3 0 -5 9 -5 20 0 11 7 20 15 20 13 0 14 -4 5
-20z m-4410 -30 c0 -5 -5 -10 -11 -10 -5 0 -7 5 -4 10 3 6 8 10 11 10 2 0 4
-4 4 -10z m-6542 -35 c211 -48 397 -270 460 -549 10 -47 15 -119 15 -211 0
-220 -48 -373 -168 -538 -135 -185 -347 -271 -540 -222 -107 28 -164 62 -257
155 -72 72 -94 103 -132 181 -74 152 -89 225 -90 419 -1 192 15 263 89 415
134 275 369 407 623 350z m6372 -4 c0 -23 -25 -46 -35 -32 -7 13 12 51 25 51
6 0 10 -8 10 -19z m-15226 -83 c3 -13 6 -60 6 -105 0 -75 10 -106 28 -88 4 4
8 43 10 88 4 124 6 127 50 125 37 -1 37 -1 5 -5 -32 -4 -33 -6 -31 -46 l1 -42
4 38 c3 24 9 37 19 37 8 0 14 -7 14 -16 0 -8 5 -12 10 -9 6 3 10 -3 10 -14 0
-14 -5 -19 -20 -16 -14 3 -20 -2 -20 -16 0 -14 7 -19 25 -19 l25 0 -2 -262
c-2 -231 -3 -245 -8 -118 -5 129 -6 136 -10 60 l-4 -85 -6 70 c-6 69 -7 69
-10 -40 -4 -110 -4 -110 -7 -27 l-4 82 -39 0 c-35 0 -40 -3 -40 -22 -1 -23 -1
-23 -15 2 l-13 25 -7 -27 c-4 -16 -11 -25 -16 -22 -12 7 -12 44 1 44 5 0 3 18
-5 40 -15 42 -9 54 22 43 17 -6 17 -6 1 14 -24 26 -23 64 3 97 11 14 16 26 10
26 -6 0 -11 -6 -12 -12 0 -7 -5 -4 -10 7 l-9 20 1 -20 c4 -69 -11 -55 -18 17
-2 29 -6 54 -8 56 -2 2 -4 -190 -4 -427 l-2 -431 32 -28 c27 -24 33 -37 37
-83 5 -65 -18 -101 -81 -129 -41 -18 -83 -14 -113 10 -7 7 -19 8 -25 4 -8 -5
-9 -3 -5 5 5 7 0 21 -9 31 -11 12 -18 37 -18 69 -1 40 4 55 29 84 31 38 54 47
54 21 0 -12 9 -14 43 -12 l42 3 3 458 c2 399 7 497 24 447 2 -5 4 16 5 47 2
37 -1 60 -10 65 -7 5 3 8 24 8 30 0 38 -4 43 -22z m1006 -58 c96 -57 124 -66
242 -81 122 -15 226 -4 332 38 102 39 115 39 229 -7 93 -37 213 -54 342 -48
111 5 121 9 190 72 91 82 174 97 262 46 125 -72 150 -217 55 -322 -87 -96
-169 -101 -296 -19 -89 59 -162 74 -338 73 -144 0 -206 -10 -227 -36 -18 -22
-42 -166 -48 -291 -7 -155 7 -207 76 -284 102 -113 95 -224 -22 -331 l-52 -48
0 -143 c0 -86 5 -160 12 -184 7 -22 37 -68 67 -103 65 -74 82 -122 65 -184
-17 -66 -47 -112 -91 -141 -107 -69 -246 -34 -302 77 -36 71 -34 118 8 197 88
164 95 194 96 383 l0 108 -53 57 c-52 57 -77 110 -77 166 0 15 24 73 54 129
37 70 57 121 65 167 14 82 14 258 1 330 -25 135 -42 144 -280 144 -193 0 -192
0 -275 -70 -70 -59 -106 -75 -168 -75 -89 0 -171 64 -196 155 -31 112 13 198
134 264 47 25 106 13 195 -39z m18020 6 c0 -3 -4 -8 -10 -11 -5 -3 -10 -1 -10
4 0 6 5 11 10 11 6 0 10 -2 10 -4z m38 -21 c-3 -3 -9 2 -12 12 -6 14 -5 15 5
6 7 -7 10 -15 7 -18z m-540 -115 c17 -27 10 -25 -19 6 -13 14 -17 23 -9 19 9
-3 21 -14 28 -25z m-18581 -82 c-3 -8 -6 -5 -6 6 -1 11 2 17 5 13 3 -3 4 -12
1 -19z m19429 -10 c4 -7 3 -8 -4 -4 -7 4 -12 1 -12 -8 0 -9 -5 -16 -10 -16 -7
0 -7 6 0 20 12 23 16 24 26 8z m191 -112 c-4 -10 -1 -13 9 -9 11 4 14 -4 14
-32 0 -22 -4 -34 -10 -30 -14 9 -42 -14 -33 -28 3 -6 1 -7 -6 -3 -6 4 -14 0
-17 -9 -6 -14 -8 -14 -20 2 -13 17 -13 17 -14 -4 0 -12 -5 -25 -11 -28 -23
-15 -19 5 10 51 17 26 31 52 31 58 0 13 31 46 43 46 5 0 7 -7 4 -14z m-292
-40 c-9 -19 -24 -41 -33 -48 -9 -7 -3 10 13 39 33 58 46 64 20 9z m-19268
-108 c-2 -13 -4 -5 -4 17 -1 22 1 32 4 23 2 -10 2 -28 0 -40z m19568 26 c-11
-8 -26 -22 -32 -31 -7 -9 -13 -12 -13 -5 0 14 40 52 54 52 6 0 2 -7 -9 -16z
m208 -31 c15 -18 22 -48 18 -88 -2 -24 -77 -112 -87 -102 -4 4 -2 7 5 7 7 0 9
5 6 10 -4 6 -1 19 6 28 7 9 2 7 -10 -5 -13 -11 -23 -32 -23 -46 0 -18 -5 -24
-15 -20 -10 4 -11 9 -2 19 6 8 9 14 6 14 -3 0 -2 12 2 28 5 15 5 36 0 47 -6
17 -8 15 -8 -10 -1 -38 -17 -55 -50 -56 -24 -1 -22 -2 18 -15 10 -3 11 -8 4
-15 -8 -8 -18 -5 -34 9 -12 12 -26 19 -32 15 -5 -3 -4 4 2 15 15 29 83 116 93
120 4 2 8 8 8 14 0 14 42 47 61 48 9 0 23 -8 32 -17z m-1438 -13 c-27 -12 -43
-12 -25 0 8 5 22 9 30 9 10 0 8 -3 -5 -9z m-90 -36 c-47 -24 -75 -47 -102 -90
-10 -15 -10 -13 -1 11 7 17 16 35 21 42 10 14 106 63 121 63 6 0 -11 -12 -39
-26z m1189 -21 c-17 -17 -18 -17 -11 0 4 10 7 24 7 30 0 8 3 8 11 0 9 -9 7
-16 -7 -30z m-196 7 c-14 -22 -48 -28 -48 -8 0 6 3 8 6 5 4 -3 16 0 28 8 27
20 29 19 14 -5z m158 -12 c-9 -12 -16 -19 -16 -15 0 11 24 47 28 42 2 -2 -3
-14 -12 -27z m70 -46 c-17 -16 -18 -16 -5 5 7 12 15 20 18 17 3 -2 -3 -12 -13
-22z m-19359 -49 c-2 -16 -4 -5 -4 22 0 28 2 40 4 28 2 -13 2 -35 0 -50z
m18900 5 c49 -46 103 -114 103 -131 0 -6 -14 10 -31 34 -17 24 -54 65 -82 91
-29 27 -48 48 -44 48 5 0 29 -19 54 -42z m932 16 c12 -15 20 -36 20 -48 -2
-20 -2 -20 -6 2 -6 30 -19 28 -26 -5 -7 -34 -53 -57 -116 -58 -26 0 -46 -6
-49 -13 -2 -6 -13 -22 -23 -34 -16 -18 -18 -19 -11 -4 14 29 165 185 179 186
6 0 21 -12 32 -26z m-17647 -31 c-58 -7 -32 -28 31 -25 l57 4 0 -153 c0 -84
-3 -149 -7 -145 -4 4 -6 67 -5 141 l3 135 -50 0 c-28 0 -54 0 -58 -1 -10 -1
-25 30 -18 41 3 6 23 9 43 8 l37 -1 -33 -4z m135 0 c-20 -2 -52 -2 -70 0 -17
2 0 4 38 4 39 0 53 -2 32 -4z m111 -15 c-3 -20 -10 -24 -58 -28 l-55 -5 -6
-60 -6 -60 1 70 1 70 58 3 c46 2 58 6 53 18 -3 7 -1 14 5 14 6 0 9 -10 7 -22z
m1735 15 c-29 -2 -78 -2 -110 0 -32 2 -8 3 52 3 61 0 87 -1 58 -3z m83 -34 c2
-31 1 -31 -3 -4 -3 16 -10 34 -16 38 -8 6 -7 7 3 4 9 -2 16 -17 16 -38z
m-4579 -31 c-2 -13 -4 -3 -4 22 0 25 2 35 4 23 2 -13 2 -33 0 -45z m19638 52
c-3 -5 -12 -10 -18 -10 -7 0 -6 4 3 10 19 12 23 12 15 0z m-972 -42 c-3 -24
-8 -60 -12 -81 l-6 -38 -38 50 c-20 28 -50 57 -66 65 -27 14 -36 13 -111 -8
-45 -13 -83 -26 -85 -28 -2 -2 -9 -64 -15 -138 -6 -74 -17 -194 -26 -267 -10
-91 -12 -138 -5 -151 14 -27 109 -97 183 -138 35 -18 59 -34 55 -34 -14 0
-112 52 -180 97 -48 32 -72 42 -79 35 -19 -19 32 -68 114 -112 51 -27 75 -45
72 -54 -6 -16 -22 -13 -113 17 -41 14 -77 34 -97 55 -32 33 -36 62 -8 62 8 0
14 8 14 18 0 13 -2 14 -9 3 -7 -10 -13 -11 -30 -2 -11 7 -21 13 -21 15 0 2 12
26 26 54 19 36 32 90 49 208 13 87 31 195 39 239 9 44 15 85 16 91 0 27 190
78 307 83 31 1 31 1 26 -41z m1120 17 c-3 -9 -8 -14 -10 -11 -3 3 -2 9 2 15 9
16 15 13 8 -4z m-15252 -12 c12 -15 12 -16 -1 -7 -8 5 -46 12 -85 15 l-70 6
71 1 c57 2 74 -2 85 -15z m-262 -14 c-6 -13 -10 -57 -7 -111 3 -84 5 -91 31
-114 15 -13 23 -24 17 -24 -6 0 -21 10 -34 23 -36 36 -44 184 -12 236 13 20
17 12 5 -10z m13333 -1 c-7 -27 -17 -29 -17 -4 0 13 5 23 11 23 6 0 9 -9 6
-19z m2283 12 c-3 -5 -11 -10 -16 -10 -6 0 -7 5 -4 10 3 6 11 10 16 10 6 0 7
-4 4 -10z m-15577 -51 c-6 -17 -8 -55 -5 -85 3 -32 2 -52 -4 -49 -12 8 -12
122 1 146 16 29 20 23 8 -12z m-808 -79 c66 0 78 -2 74 -15 -5 -11 -22 -15
-66 -15 -88 0 -98 9 -96 78 l2 57 3 -52 4 -53 79 0z m389 32 c-1 -96 -17 -108
-18 -14 -1 53 3 81 9 77 6 -3 10 -32 9 -63z m83 25 c-18 -19 -20 -32 -17 -85
2 -42 9 -70 21 -83 9 -10 12 -19 6 -19 -44 0 -59 145 -21 194 12 15 24 25 27
21 3 -3 -4 -15 -16 -28z m218 -80 c0 -53 -4 -65 -27 -89 -25 -26 -72 -41 -58
-18 4 6 -11 10 -37 10 -24 0 -50 5 -58 10 -11 7 5 10 52 10 76 0 80 3 89 75
l6 50 2 -46 c1 -33 -5 -54 -20 -73 -22 -28 -14 -34 17 -12 26 20 28 134 2 163
-10 11 -18 24 -18 29 0 5 12 -4 25 -19 21 -23 25 -38 25 -90z m1200 99 c0 -10
-13 -16 -37 -18 -35 -3 -39 -6 -45 -38 l-6 -35 1 40 c2 39 3 40 40 43 20 2 37
7 37 13 0 5 2 9 5 9 3 0 5 -6 5 -14z m77 -4 c-24 -27 -21 -69 6 -86 12 -8 42
-18 66 -22 24 -4 55 -17 69 -29 l26 -22 -27 -18 c-22 -14 -40 -17 -88 -12 -33
3 -63 8 -66 11 -14 14 7 16 52 6 53 -12 105 -5 105 13 0 7 -30 21 -67 32 -70
20 -113 51 -113 82 0 23 27 63 42 63 6 0 4 -8 -5 -18z m13639 -22 c71 -43 170
-124 184 -149 8 -16 -52 -272 -100 -430 -14 -43 -20 -92 -20 -153 0 -108 -4
-116 -127 -256 -46 -53 -105 -130 -130 -172 -44 -71 -118 -160 -135 -160 -4 0
-12 9 -18 20 -8 16 -6 27 13 57 14 21 34 47 46 57 28 25 27 45 -1 20 -16 -13
-13 -7 8 21 56 74 159 253 151 262 -2 2 -24 6 -50 9 l-46 7 -39 -64 c-59 -94
-107 -160 -110 -149 -2 4 6 26 17 48 20 39 43 122 34 122 -2 0 -13 -21 -24
-46 -28 -62 -35 -50 -9 15 28 71 26 105 -6 130 -18 14 -22 21 -11 21 9 0 24
-11 35 -25 16 -20 34 -27 88 -35 38 -5 88 -10 111 -10 23 0 44 -4 47 -9 3 -5
-1 -26 -10 -46 -26 -62 -8 -51 22 14 16 34 32 61 36 61 11 0 62 58 70 79 13
36 -6 45 -64 33 -43 -9 -45 -10 -11 -6 42 4 42 4 32 -20 -6 -13 -28 -32 -49
-41 -64 -29 -249 -11 -217 21 3 4 48 11 99 17 65 7 85 13 68 17 -29 8 -25 10
61 34 67 19 53 -9 160 315 l74 224 -64 58 c-76 70 -99 74 -179 28 -30 -17 -56
-28 -58 -26 -3 2 3 26 12 53 26 76 33 94 39 94 3 0 35 -18 71 -40z m-13976 14
c16 -18 31 -104 18 -104 -4 0 -8 18 -8 40 0 27 -7 47 -20 60 -11 11 -16 20
-11 20 5 0 14 -7 21 -16z m507 10 c-3 -3 -12 -4 -19 -1 -8 3 -5 6 6 6 11 1 17
-2 13 -5z m14643 -2 c0 -4 -9 -13 -20 -20 -22 -13 -27 -3 -8 16 14 14 28 16
28 4z m-17310 -13 c-59 -7 -79 -13 -94 -31 l-18 -23 41 -3 c22 -2 41 -7 41
-13 0 -5 14 -9 30 -9 44 0 38 -26 -7 -34 -21 -3 -53 -6 -70 -6 -25 0 -33 -4
-33 -18 0 -11 10 -24 23 -30 l22 -10 -23 1 c-28 2 -43 25 -35 55 5 20 13 22
77 24 l71 2 -70 5 c-63 5 -70 8 -73 28 -2 14 6 32 22 48 23 22 32 25 98 24
l73 -2 -75 -8z m336 -4 c17 -13 16 -13 -16 -4 -49 14 -128 2 -140 -21 -6 -10
-11 -36 -12 -57 l-1 -38 -4 34 c-5 40 13 88 35 94 40 11 119 6 138 -8z m831
-8 c15 -14 12 -14 -28 0 -33 11 -52 12 -76 5 -31 -10 -47 0 -20 12 23 10 108
-1 124 -17z m515 -87 c2 -70 -1 -109 -7 -107 -13 5 -19 217 -6 217 6 0 11 -48
13 -110z m85 101 c-27 -4 -53 -14 -58 -22 -7 -12 -9 -12 -9 2 0 25 10 29 64
28 l51 -2 -48 -6z m331 3 c30 -6 52 -37 52 -74 0 -18 -7 -20 -84 -20 -67 0
-85 3 -90 16 -3 9 -2 23 4 32 8 14 9 12 10 -11 l0 -28 73 3 c70 3 72 4 69 28
-4 33 -11 39 -54 42 -20 1 -34 6 -32 10 6 10 12 10 52 2z m202 -2 c0 -4 -17
-6 -37 -4 -59 5 -63 10 -10 11 26 1 47 -3 47 -7z m379 -7 c1 -2 0 -8 -4 -14
-4 -8 -12 -8 -25 -1 -30 16 -130 13 -130 -4 0 -19 12 -26 90 -52 47 -15 66
-26 68 -40 4 -18 3 -18 -10 -2 -7 11 -38 22 -73 29 -64 12 -95 31 -95 60 0 31
30 40 105 33 39 -3 72 -7 74 -9z m-825 -27 c16 -46 3 -58 -61 -56 l-58 1 55 6
c62 7 76 27 43 63 -14 16 -14 20 -3 16 8 -2 19 -16 24 -30z m126 22 c0 -5 -5
-10 -11 -10 -5 0 -7 5 -4 10 3 6 8 10 11 10 2 0 4 -4 4 -10z m-1253 -147 c-2
-27 -3 -5 -3 47 0 52 1 74 3 48 2 -27 2 -69 0 -95z m15500 115 c-3 -8 -6 -5
-6 6 -1 11 2 17 5 13 3 -3 4 -12 1 -19z m1033 18 c0 -2 -8 -10 -17 -17 -16
-13 -17 -12 -4 4 13 16 21 21 21 13z m-16244 -66 c-1 -57 -14 -55 -15 2 -1 23
7 58 13 58 2 0 2 -27 2 -60z m14740 51 c-45 -7 -48 -14 -65 -137 -10 -69 -10
-68 -5 24 6 122 6 122 63 121 l46 -2 -39 -6z m-15119 -68 c-2 -16 -4 -5 -4 22
0 28 2 40 4 28 2 -13 2 -35 0 -50z m1320 -55 c-2 -24 -4 -5 -4 42 0 47 2 66 4
43 2 -24 2 -62 0 -85z m13966 100 c68 -22 69 -23 64 -53 -6 -37 -47 -148 -53
-142 -2 2 5 30 16 62 11 32 20 66 20 76 0 20 -67 56 -131 68 -37 7 -39 9 -14
10 17 1 61 -9 98 -21z m-16066 -20 c-3 -8 -6 -5 -6 6 -1 11 2 17 5 13 3 -3 4
-12 1 -19z m17356 -2 c-10 -13 -20 -22 -22 -20 -4 4 29 44 36 44 2 0 -4 -11
-14 -24z m-17086 -33 c-3 -10 -5 -2 -5 17 0 19 2 27 5 18 2 -10 2 -26 0 -35z
m1588 37 c3 -5 1 -10 -4 -10 -6 0 -11 5 -11 10 0 6 2 10 4 10 3 0 8 -4 11 -10z
m15525 -20 c0 -5 -4 -10 -10 -10 -5 0 -10 5 -10 10 0 6 5 10 10 10 6 0 10 -4
10 -10z m-16793 -67 c-2 -16 -4 -5 -4 22 0 28 2 40 4 28 2 -13 2 -35 0 -50z
m1730 -5 c-2 -13 -4 -3 -4 22 0 25 2 35 4 23 2 -13 2 -33 0 -45z m-470 30 c-3
-8 -6 -5 -6 6 -1 11 2 17 5 13 3 -3 4 -12 1 -19z m442 -10 c-2 -31 -2 -31 -6
-5 -4 27 -5 27 -79 27 l-74 0 0 -34 c0 -19 -4 -38 -10 -41 -6 -4 -10 6 -10 24
0 58 5 61 96 61 l84 0 -1 -32z m13521 -85 l0 -118 34 -23 c35 -24 118 -39 160
-28 28 7 69 77 100 174 10 28 19 52 21 52 2 0 13 -19 23 -43 13 -29 40 -59 81
-92 l61 -48 1 -71 c0 -39 3 -64 6 -56 3 8 10 26 15 39 6 16 12 21 19 14 6 -6
1 -35 -14 -84 -34 -105 -52 -136 -95 -158 -46 -23 -142 -52 -142 -43 0 4 14
40 30 81 36 89 38 111 5 53 -25 -45 -65 -99 -65 -89 0 3 7 33 16 67 23 90 10
84 -21 -9 -32 -96 -47 -113 -30 -33 7 31 16 80 19 107 l5 50 -24 -50 c-25 -53
-31 -52 -16 3 17 57 -6 25 -30 -43 -12 -35 -24 -63 -26 -61 -2 2 3 31 11 64
19 71 21 105 6 82 -8 -11 -9 -6 -8 20 3 34 2 34 -45 43 -26 5 -50 7 -53 4 -3
-3 -12 -29 -20 -59 -13 -53 -13 -53 -8 -8 7 64 -3 46 -25 -46 l-20 -79 6 80
c6 81 -4 96 -18 28 -6 -28 -7 -23 -3 21 8 88 -11 62 -37 -52 -26 -109 -35
-104 -20 14 5 43 8 80 6 82 -1 2 -11 -31 -21 -73 -21 -88 -29 -80 -41 38 l-7
72 -11 -110 -10 -110 -68 67 -68 67 7 108 c5 68 12 113 21 121 11 11 13 10 13
-7 0 -30 17 -35 24 -7 10 42 53 83 93 90 46 8 143 54 143 67 0 5 5 9 10 9 6 0
10 -46 10 -117z m-15490 72 c0 -5 -5 -3 -10 5 -5 8 -10 20 -10 25 0 6 5 3 10
-5 5 -8 10 -19 10 -25z m1430 -4 c0 -30 -26 -46 -51 -30 -9 5 -5 10 14 14 17
5 27 14 27 26 0 10 2 19 5 19 3 0 5 -13 5 -29z m287 -3 c-3 -7 -5 -2 -5 12 0
14 2 19 5 13 2 -7 2 -19 0 -25z m767 -19 c-13 -15 -30 -19 -78 -19 -67 0 -106
8 -106 21 0 4 14 3 31 -3 46 -16 130 -5 149 20 8 11 17 16 19 10 1 -5 -5 -18
-15 -29z m-2644 17 c0 -2 -18 -6 -40 -8 -22 -2 -40 0 -40 4 0 5 18 8 40 8 22
0 40 -2 40 -4z m253 -3 c-13 -2 -35 -2 -50 0 -16 2 -5 4 22 4 28 0 40 -2 28
-4z m17147 3 c0 -2 -8 -10 -17 -17 -16 -13 -17 -12 -4 4 13 16 21 21 21 13z
m45 -16 c3 -5 1 -10 -4 -10 -6 0 -11 5 -11 10 0 6 2 10 4 10 3 0 8 -4 11 -10z
m-65 -27 c0 -4 -17 -22 -37 -40 -37 -33 -38 -42 -3 -23 14 8 18 6 16 -6 -1 -9
-7 -19 -13 -22 -5 -4 -13 -20 -17 -37 -7 -26 -9 -27 -17 -12 -12 21 -32 22
-49 2 -7 -9 -19 -14 -27 -11 -7 3 -13 1 -13 -4 0 -6 -7 -10 -16 -10 -11 0 -15
-6 -11 -20 3 -11 1 -18 -4 -14 -19 12 -6 30 84 115 87 83 107 98 107 82z m70
-13 c0 -5 -2 -10 -4 -10 -3 0 -8 5 -11 10 -3 6 -1 10 4 10 6 0 11 -4 11 -10z
m-19993 -42 c-3 -7 -5 -2 -5 12 0 14 2 19 5 13 2 -7 2 -19 0 -25z m19957 13
c17 -19 17 -20 -6 -32 -20 -11 -21 -10 -11 3 15 17 7 29 -13 21 -8 -3 -14 0
-14 7 0 6 5 8 10 5 6 -3 10 -1 10 4 0 15 4 14 24 -8z m-20597 -213 c27 -27 36
-47 40 -80 5 -54 -11 -84 -61 -119 -34 -23 -44 -25 -84 -17 -50 9 -76 28 -98
70 -22 43 -17 81 19 128 17 24 37 51 43 62 10 17 12 16 17 -12 5 -21 12 -30
26 -30 47 0 51 8 53 104 l2 91 3 -80 c4 -76 6 -82 40 -117z m20603 158 c-14
-13 -27 -21 -30 -19 -4 4 40 42 50 43 2 0 -7 -11 -20 -24z m-58 -28 c-7 -7
-12 -8 -12 -2 0 14 12 26 19 19 2 -3 -1 -11 -7 -17z m-19908 -30 c-5 -40 -2
-46 35 -88 37 -40 41 -49 41 -96 0 -45 -4 -57 -30 -83 -52 -52 -135 -53 -183
-3 -56 59 -56 120 -1 179 19 20 34 41 35 47 0 6 4 1 9 -11 17 -43 80 -26 80
21 0 32 9 76 16 76 2 0 1 -19 -2 -42z m2319 15 l67 -6 0 -33 c0 -33 -15 -54
-22 -32 -3 9 -35 14 -100 16 -88 4 -97 2 -121 -20 -30 -26 -72 -113 -43 -89
14 12 16 8 16 -41 0 -78 16 -90 133 -98 l92 -7 -89 -1 c-49 -1 -87 -4 -85 -6
9 -8 191 -17 186 -9 -3 4 -1 28 3 53 11 62 2 70 -82 70 -66 0 -69 1 -66 23 3
20 10 23 71 27 105 8 107 6 107 -94 0 -57 -4 -87 -12 -93 -7 -4 -53 -9 -103
-11 -104 -4 -145 11 -182 67 -19 28 -23 48 -23 108 0 98 25 146 90 175 20 9
79 9 163 1z m583 -59 c6 -32 16 -70 22 -84 19 -48 83 -145 94 -145 18 0 86
146 103 223 12 51 21 72 32 72 13 0 15 -12 11 -70 -3 -59 -11 -83 -53 -165
-78 -153 -112 -159 -177 -32 -84 164 -98 209 -77 248 17 33 32 17 45 -47z
m16941 60 c-3 -3 -12 -4 -19 -1 -8 3 -5 6 6 6 11 1 17 -2 13 -5z m-17095 -30
c16 -16 26 -54 13 -54 -4 0 -20 7 -36 16 -17 8 -61 18 -98 21 -62 5 -69 4 -96
-20 -27 -23 -28 -27 -15 -41 8 -8 56 -26 105 -41 101 -29 138 -51 144 -86 5
-38 -27 -86 -70 -103 -80 -32 -199 -13 -214 34 -10 32 3 42 33 26 36 -19 130
-29 167 -18 33 9 47 50 23 69 -7 6 -60 24 -118 40 -92 25 -106 32 -114 54 -11
32 -1 74 23 98 27 27 224 30 253 5z m17078 12 c0 -3 -4 -8 -10 -11 -5 -3 -10
-1 -10 4 0 6 5 11 10 11 6 0 10 -2 10 -4z m447 -138 c4 -7 6 -22 5 -33 -2 -15
-1 -17 6 -6 8 11 12 10 21 -6 7 -15 7 -24 -2 -34 -19 -23 -61 -55 -53 -41 4 7
2 12 -5 12 -9 0 -9 3 0 14 9 11 8 18 -5 31 -14 14 -15 18 -3 30 12 12 14 11
16 -10 4 -50 6 -56 16 -46 5 5 5 17 -2 29 -6 11 -8 27 -5 35 11 30 -13 25 -45
-8 -18 -19 -37 -35 -42 -35 -6 0 -7 -5 -3 -12 4 -7 3 -8 -5 -4 -6 4 -27 -6
-48 -23 -21 -17 -41 -31 -46 -31 -5 0 11 15 35 34 43 32 56 43 116 93 31 26
38 28 49 11z m-2317 -145 c3 -4 -14 4 -38 17 -23 13 -50 33 -60 44 -9 10 8 2
38 -18 30 -21 57 -40 60 -43z m1950 44 c11 -5 9 -6 -4 -4 -11 1 -21 9 -23 17
-3 10 -2 11 4 4 4 -6 15 -14 23 -17z m-2193 -39 c-2 -13 -4 -5 -4 17 -1 22 1
32 4 23 2 -10 2 -28 0 -40z m1130 30 c-3 -8 -6 -5 -6 6 -1 11 2 17 5 13 3 -3
4 -12 1 -19z m-1051 -63 c25 -25 56 -48 68 -51 20 -5 22 -12 24 -87 3 -86 15
-179 32 -237 9 -33 8 -34 -7 -15 -15 19 -15 19 -9 -5 27 -106 29 -119 16 -135
-7 -8 -18 -15 -26 -15 -16 0 -54 100 -54 144 0 48 -36 221 -61 289 -18 52 -41
157 -33 157 2 0 24 -20 50 -45z m2439 35 c-3 -5 -12 -10 -18 -10 -7 0 -6 4 3
10 19 12 23 12 15 0z m-2240 -28 c-3 -3 -11 0 -18 7 -9 10 -8 11 6 5 10 -3 15
-9 12 -12z m-278 -199 c-2 -38 -3 -7 -3 67 0 74 1 105 3 68 2 -38 2 -98 0
-135z m2298 167 c-3 -5 -3 -20 1 -34 4 -17 11 -23 22 -19 11 5 13 3 7 -7 -6
-10 -4 -12 11 -6 14 5 16 4 8 -4 -17 -17 -50 3 -58 35 -6 24 -1 45 10 45 3 0
3 -4 -1 -10z m424 -32 c6 -17 10 -32 9 -32 -2 -1 -12 -8 -22 -16 -11 -8 -17
-10 -13 -3 4 6 1 14 -5 16 -8 3 -6 6 5 6 18 1 25 41 7 41 -5 0 -10 5 -10 10 0
22 19 8 29 -22z m-2345 -19 c-3 -5 -17 -9 -31 -9 -25 0 -26 0 -8 20 14 15 21
17 31 9 8 -6 11 -15 8 -20z m2221 11 c-3 -5 -12 -10 -18 -10 -7 0 -6 4 3 10
19 12 23 12 15 0z m-2250 -32 c17 0 46 3 65 6 l35 6 -35 -12 c-43 -16 -59 -48
-61 -118 l-1 -55 -12 50 -13 50 -7 -80 c-4 -44 -8 -89 -9 -100 -4 -33 -37 156
-37 212 0 49 1 52 23 46 12 -3 36 -6 52 -5z m698 -43 c-9 -19 -18 -33 -21 -31
-4 5 26 66 33 66 3 0 -3 -16 -12 -35z m-406 -7 c-3 -7 -5 -2 -5 12 0 14 2 19
5 13 2 -7 2 -19 0 -25z m2158 -48 c3 -6 -1 -7 -9 -4 -18 7 -21 14 -7 14 6 0
13 -4 16 -10z m-3102 -27 c-13 -2 -33 -2 -45 0 -13 2 -3 4 22 4 25 0 35 -2 23
-4z m2758 -43 c5 0 22 7 37 16 26 16 25 15 -3 -9 -16 -15 -33 -26 -37 -27 -11
0 -38 43 -38 60 1 8 7 3 16 -12 8 -16 19 -28 25 -28z m-1483 -40 c-17 -39 -33
-69 -35 -67 -4 5 54 137 61 137 3 0 -9 -32 -26 -70z m-1513 43 c-16 -9 -34
-21 -38 -27 -6 -7 -7 -6 -4 4 2 8 14 21 28 27 36 19 49 15 14 -4z m310 -140
c3 -21 12 -71 21 -111 9 -40 14 -75 12 -77 -2 -2 -50 -8 -108 -15 -58 -6 -121
-13 -140 -16 l-35 -6 30 17 c77 42 137 85 120 85 -3 0 6 17 20 37 14 21 25 41
25 46 0 18 30 77 39 77 6 0 13 -17 16 -37z m1158 2 c-3 -9 -8 -14 -10 -11 -3
3 -2 9 2 15 9 16 15 13 8 -4z m-731 -171 c21 3 57 3 81 -1 l42 -8 -40 -5 c-35
-4 -41 -9 -46 -35 -5 -23 -7 -25 -8 -7 -1 24 -20 29 -39 10 -9 -9 -20 -4 -48
23 l-37 34 7 -30 c10 -42 33 -75 53 -75 9 0 14 -2 11 -5 -3 -4 -17 -3 -30 0
-20 5 -30 20 -48 72 -23 64 -23 66 -5 99 l18 34 25 -56 26 -56 38 6z m-1215
-6 c-3 -8 -6 -5 -6 6 -1 11 2 17 5 13 3 -3 4 -12 1 -19z m-10 -50 c-3 -8 -6
-5 -6 6 -1 11 2 17 5 13 3 -3 4 -12 1 -19z m1696 -99 c-46 -46 -50 -47 -88
-39 l-40 8 39 1 c29 1 48 9 68 28 39 37 35 43 -14 26 -38 -13 -44 -13 -54 1
-14 19 -30 21 -37 4 -3 -7 -6 1 -6 19 -1 27 -6 34 -36 44 -19 7 -33 15 -31 17
8 7 92 -21 119 -40 27 -19 27 -19 61 1 19 12 40 29 47 38 12 14 14 12 17 -22
3 -34 -2 -43 -45 -86z m730 42 c-2 -3 -16 8 -31 24 l-27 28 31 -24 c17 -13 30
-26 27 -28z m-310 -73 c-3 -92 -2 -97 30 -144 17 -27 43 -59 57 -72 20 -18
-68 32 -212 122 -25 15 -23 23 15 70 18 23 45 60 60 84 42 65 52 52 50 -60z
m-1888 62 l70 -24 -33 -9 c-34 -11 -38 -18 -62 -139 -6 -32 -13 -58 -15 -58
-3 0 -4 33 -3 73 1 60 -3 81 -25 124 -30 59 -32 67 -14 61 6 -3 44 -16 82 -28z
m766 9 c38 -7 73 -17 78 -23 11 -15 32 -78 27 -83 -10 -11 -45 19 -54 47 -6
16 -18 30 -26 30 -10 0 -13 -6 -10 -15 9 -21 1 -19 -56 16 -72 44 -69 46 41
28z m989 -5 c0 -7 -66 -34 -82 -33 -7 0 7 8 32 19 25 10 46 18 48 19 1 1 2 -1
2 -5z m-740 -68 c0 5 4 3 9 -4 13 -21 217 -64 284 -59 35 2 52 0 43 -5 -27
-15 -98 -10 -220 16 -97 20 -124 30 -145 52 l-26 26 28 -17 c15 -9 27 -13 27
-9z m-1820 -43 c-83 -90 -87 -93 -35 -25 42 55 69 81 84 82 2 0 -20 -26 -49
-57z m-14115 -6 c220 -48 405 -126 536 -224 83 -63 181 -172 233 -261 101
-173 144 -338 153 -582 13 -364 -83 -640 -296 -849 -107 -106 -259 -203 -374
-241 -31 -10 -37 -15 -32 -31 9 -26 153 -341 303 -659 65 -140 148 -316 182
-390 35 -74 85 -182 111 -239 27 -57 49 -105 49 -107 0 -2 23 -52 50 -110 58
-123 62 -150 23 -165 -19 -7 -162 -10 -424 -7 -334 2 -399 5 -414 18 -19 15
-33 43 -175 355 -46 99 -97 212 -115 250 -18 39 -71 153 -118 255 -47 102
-137 298 -201 435 l-115 250 -166 3 -165 2 0 -763 c0 -643 -2 -766 -14 -783
-14 -18 -31 -19 -394 -21 -320 -1 -383 1 -401 13 l-21 15 0 1129 0 1129 728 3
c714 4 728 4 807 26 44 12 103 33 131 47 65 32 148 119 182 192 24 52 27 69
27 173 0 97 -4 125 -24 178 -43 115 -138 197 -286 248 -92 32 -89 32 -1055 37
l-505 2 -3 339 c-2 249 1 342 10 353 10 12 132 14 832 10 l821 -3 120 -27z
m13911 -38 c-14 -35 -25 -59 -26 -52 0 17 41 125 46 120 2 -2 -7 -33 -20 -68z
m528 -5 c8 -22 -11 -54 -34 -54 -23 0 -36 36 -20 55 16 20 46 19 54 -1z m2021
-4 c32 -11 67 -20 77 -20 35 0 8 -19 -37 -26 -55 -8 -61 -7 -57 12 4 21 -28
17 -54 -7 -12 -11 -30 -19 -40 -17 -15 3 -13 9 15 41 18 20 34 37 35 37 2 0
29 -9 61 -20z m-2126 -157 c19 -13 50 -24 70 -25 l36 -1 -33 -4 c-66 -9 -144
66 -141 135 0 9 8 -5 17 -33 12 -35 27 -56 51 -72z m4228 111 c-3 -3 -12 -4
-19 -1 -8 3 -5 6 6 6 11 1 17 -2 13 -5z m-52 -14 c-3 -5 -1 -10 6 -10 7 0 10
-3 6 -6 -9 -9 -28 6 -22 17 4 5 8 9 11 9 3 0 2 -4 -1 -10z m-2426 -192 c-22
-57 -36 -79 -24 -38 12 41 34 90 39 90 3 0 -4 -24 -15 -52z m-1312 20 c-3 -8
-6 -5 -6 6 -1 11 2 17 5 13 3 -3 4 -12 1 -19z m1170 -20 c-3 -8 -6 -5 -6 6 -1
11 2 17 5 13 3 -3 4 -12 1 -19z m-257 8 c0 -2 -24 -15 -52 -29 -29 -15 -82
-49 -118 -77 l-65 -51 55 52 c50 47 180 123 180 105z m1737 -48 c-3 -8 -6 -5
-6 6 -1 11 2 17 5 13 3 -3 4 -12 1 -19z m-1022 -208 c12 -25 26 -56 29 -70 4
-14 -7 2 -24 35 -17 33 -43 76 -59 95 -43 54 -46 69 -6 25 20 -22 47 -60 60
-85z m2252 18 c-3 -7 -5 -2 -5 12 0 14 2 19 5 13 2 -7 2 -19 0 -25z m-2729 15
c-15 -2 -42 -2 -60 0 -18 2 -6 4 27 4 33 0 48 -2 33 -4z m76 -40 c29 -9 65
-32 93 -58 39 -37 43 -46 32 -58 -12 -13 -15 -13 -22 -1 -4 8 -16 14 -25 14
-10 0 -22 4 -27 8 -11 9 -86 32 -101 31 -5 0 0 -4 11 -9 17 -8 16 -9 -9 -9
-21 -1 -27 3 -22 14 4 11 -2 15 -22 16 -15 0 -53 4 -84 8 -53 6 -60 5 -85 -18
-15 -15 -31 -25 -35 -24 -17 6 -18 -42 -2 -89 16 -49 16 -52 -1 -64 -17 -13
-17 -16 0 -81 26 -104 52 -152 83 -159 15 -3 38 -10 52 -14 14 -5 47 -12 73
-16 44 -6 51 -4 90 27 43 35 95 89 111 117 5 10 4 22 -3 35 -11 17 -8 24 21
56 18 20 37 41 42 46 5 6 6 -18 3 -57 -6 -84 -38 -143 -108 -198 -78 -62 -155
-75 -260 -44 -71 21 -159 109 -179 178 -21 76 -9 175 29 234 17 27 41 58 53
68 21 19 21 19 9 -4 -12 -22 -11 -22 9 -10 11 7 18 19 15 25 -5 15 39 40 92
51 46 10 102 5 167 -15z m-201 -60 c-7 -2 -19 -2 -25 0 -7 3 -2 5 12 5 14 0
19 -2 13 -5z m29 -66 c27 -26 104 -47 176 -47 44 0 72 -4 72 -11 0 -5 5 -7 10
-4 6 3 10 -1 10 -10 0 -10 -5 -13 -12 -9 -8 5 -9 2 -5 -9 3 -10 2 -17 -3 -17
-6 0 -9 -4 -7 -9 3 -14 -56 -90 -71 -91 -7 0 -11 -4 -8 -9 7 -11 -19 -46 -36
-46 -7 -1 -12 -6 -10 -13 1 -7 -3 -12 -8 -12 -6 0 -16 -11 -22 -25 -10 -23
-13 -24 -21 -9 -7 11 -3 25 13 48 l23 31 -26 -24 -26 -24 -10 27 c-6 14 -13
26 -15 26 -7 0 15 -62 26 -76 6 -8 1 -11 -16 -11 -18 0 -26 7 -34 33 -5 19 -6
32 -1 28 13 -8 11 7 -6 36 -18 31 -19 43 -2 34 6 -4 2 3 -10 15 -24 23 -29 39
-36 114 -4 37 -1 47 10 47 9 0 13 6 9 15 -7 19 17 20 36 2z m2882 -1 c-6 -16
-34 -30 -34 -18 0 10 22 32 32 32 4 0 5 -6 2 -14z m-2549 -5 c3 -5 1 -12 -5
-16 -5 -3 -10 1 -10 9 0 18 6 21 15 7z m2575 -11 c0 -5 -4 -10 -10 -10 -5 0
-10 5 -10 10 0 6 5 10 10 10 6 0 10 -4 10 -10z m-3393 -162 c-2 -29 -3 -6 -3
52 0 58 1 81 3 53 2 -29 2 -77 0 -105z m2243 132 c20 -38 -19 -77 -48 -48 -23
23 -7 68 25 68 7 0 17 -9 23 -20z m-1423 -22 c-3 -7 -5 -2 -5 12 0 14 2 19 5
13 2 -7 2 -19 0 -25z m-13731 -3 c407 -102 739 -465 885 -969 96 -330 90 -776
-16 -1091 -159 -477 -469 -803 -865 -910 -335 -91 -690 16 -957 287 -140 143
-194 218 -280 389 -211 422 -241 981 -77 1434 128 352 371 648 643 784 148 74
257 99 437 100 109 1 149 -3 230 -24z m13328 -40 l6 -50 -15 50 c-17 59 -19
73 -6 60 5 -6 12 -32 15 -60z m573 23 c-3 -7 -5 -2 -5 12 0 14 2 19 5 13 2 -7
2 -19 0 -25z m1532 -37 c12 -35 21 -69 20 -75 -1 -12 -48 123 -49 138 0 19 9
-1 29 -63z m-1759 -8 c0 -15 -68 -88 -75 -81 -4 4 7 22 24 40 17 18 31 36 31
41 0 4 5 7 10 7 6 0 10 -3 10 -7z m1553 -52 c-30 -40 -62 -52 -121 -48 -38 3
-60 10 -75 25 -12 12 -16 22 -9 22 7 0 12 -4 12 -8 0 -15 49 -32 90 -32 43 0
94 35 106 73 5 14 9 17 12 8 2 -7 -4 -25 -15 -40z m-1862 -52 c5 -24 12 -52
15 -61 3 -10 1 -18 -3 -18 -5 0 -15 26 -22 58 -7 31 -15 64 -18 72 -4 11 -3
12 7 4 6 -7 16 -31 21 -55z m229 4 c0 -10 -32 -43 -42 -43 -5 0 -1 11 8 25 15
23 34 33 34 18z m1867 -25 c-3 -8 -6 -5 -6 6 -1 11 2 17 5 13 3 -3 4 -12 1
-19z m-2208 -83 c9 -11 21 -27 25 -35 4 -8 -9 3 -29 25 -20 22 -41 49 -46 60
-7 14 -4 13 11 -5 11 -14 29 -34 39 -45z m291 50 c0 -10 -44 -55 -53 -55 -5 0
-4 7 3 15 6 8 8 20 4 26 -4 7 -3 9 4 5 6 -3 13 -2 17 4 6 10 25 14 25 5z
m2047 -42 c-3 -10 -5 -2 -5 17 0 19 2 27 5 18 2 -10 2 -26 0 -35z m-2017 33
c0 -2 -8 -10 -17 -17 -16 -13 -17 -12 -4 4 13 16 21 21 21 13z m-1340 -57 c20
-38 20 -42 5 -59 -15 -16 -12 -21 40 -68 31 -27 64 -61 73 -73 9 -13 -18 7
-60 44 -59 52 -80 79 -92 114 -11 32 -13 51 -5 64 13 26 16 25 39 -22z m312
-134 c26 -41 46 -75 44 -75 -5 0 -108 155 -125 187 -20 39 -11 39 12 1 12 -21
43 -72 69 -113z m1418 106 c-11 -22 -24 -42 -29 -46 -6 -3 2 15 15 40 31 55
42 60 14 6z m6697 -7 c-3 -3 -12 -4 -19 -1 -8 3 -5 6 6 6 11 1 17 -2 13 -5z
m-7097 -34 c-8 -5 -24 -9 -35 -9 -16 1 -16 2 5 9 35 11 48 11 30 0z m-10460
-162 c364 -96 553 -262 631 -554 28 -104 31 -318 6 -412 -42 -158 -143 -291
-286 -375 l-81 -48 92 -46 c118 -59 207 -145 261 -253 57 -115 72 -185 71
-325 -2 -128 -16 -201 -61 -315 -95 -238 -319 -394 -673 -470 -33 -7 -196 -14
-407 -17 l-353 -5 0 260 0 260 278 5 c207 3 292 9 338 20 123 32 206 95 245
185 22 51 25 154 7 214 -16 55 -84 127 -149 160 -109 54 -159 58 -739 58
l-530 0 0 838 c0 657 3 841 13 851 9 9 140 11 607 9 l595 -4 135 -36z m2485
13 c360 -84 620 -256 806 -534 74 -111 106 -173 154 -302 104 -278 130 -602
71 -885 -122 -584 -513 -984 -1061 -1086 -188 -35 -535 -26 -704 18 -206 53
-392 142 -513 245 -298 253 -466 601 -500 1032 -23 304 25 557 159 826 180
363 516 615 914 684 166 29 166 29 384 26 159 -3 218 -8 290 -24z m2923 -210
c2 -181 -1 -236 -10 -243 -7 -4 -405 -8 -883 -8 -664 0 -874 3 -883 12 -9 9
-12 75 -12 235 0 201 2 223 18 232 11 7 310 10 892 8 l875 -2 3 -234z m964
-943 l3 -1183 155 -3 c108 -2 156 -6 162 -15 9 -14 11 -438 2 -461 -6 -14 -70
-16 -624 -16 -493 0 -620 3 -628 13 -16 19 -18 443 -2 462 9 11 46 15 164 17
l151 3 3 1183 2 1182 305 0 305 0 2 -1182z m2563 602 l0 -575 -302 -2 -303 -2
-2 292 c-2 327 -2 334 -8 341 -12 11 -285 -15 -370 -35 -331 -77 -549 -299
-617 -628 -21 -100 -23 -379 -4 -476 47 -239 176 -428 366 -536 188 -107 317
-129 760 -129 160 0 334 -3 388 -7 l97 -6 0 -243 c0 -133 -3 -249 -6 -258 -5
-14 -44 -16 -336 -16 -491 0 -697 21 -963 96 -527 150 -845 512 -920 1047 -61
434 15 864 200 1142 206 310 548 489 1050 549 193 23 181 23 590 22 l380 -1 0
-575z m1245 550 c167 -43 328 -135 429 -245 112 -124 188 -304 198 -472 l6
-93 -285 0 c-305 0 -308 1 -308 52 0 54 -39 134 -86 178 -70 65 -123 85 -224
85 -78 0 -90 -3 -149 -35 -113 -61 -171 -157 -174 -285 -2 -135 53 -229 166
-285 53 -26 84 -33 202 -45 169 -18 179 -20 280 -52 169 -54 271 -118 385
-240 117 -126 183 -288 206 -508 7 -72 -18 -257 -46 -339 -88 -258 -315 -451
-610 -521 -36 -8 -118 -18 -182 -22 l-118 -6 0 256 c0 142 3 257 8 257 43 1
157 36 200 62 57 35 117 106 138 166 37 104 4 234 -82 320 -77 77 -152 108
-289 122 -389 40 -643 192 -785 470 -98 192 -99 477 -2 704 52 121 136 229
240 307 31 24 62 48 67 54 16 17 164 81 240 105 103 31 183 39 345 35 106 -3
168 -9 230 -25z m3098 -54 c-7 -8 -15 -12 -17 -11 -5 6 10 25 20 25 5 0 4 -6
-3 -14z m-2476 -170 c16 -30 -7 -11 -43 37 l-33 42 33 -30 c18 -16 37 -38 43
-49z m418 69 c0 -5 -68 -52 -125 -85 -61 -36 -32 -11 48 42 77 50 77 50 77 43z
m182 -163 c-23 -30 -44 -41 -113 -63 -46 -15 -93 -30 -104 -33 -13 -5 -12 -2
5 8 26 16 92 39 144 51 24 5 27 10 23 31 -3 19 4 31 32 55 35 29 36 29 39 8 2
-12 -8 -36 -26 -57z m-637 -2 c-3 -5 -12 -10 -18 -10 -7 0 -6 4 3 10 19 12 23
12 15 0z m159 -232 c-3 -7 -20 -24 -37 -37 l-32 -25 34 37 c38 40 43 44 35 25z
m-6104 -1352 c0 -492 -3 -901 -6 -910 -5 -14 -41 -16 -293 -16 -210 0 -290 3
-299 12 -9 9 -12 225 -12 910 l0 898 305 0 305 0 0 -894z m8547 718 c-3 -3
-12 -4 -19 -1 -8 3 -5 6 6 6 11 1 17 -2 13 -5z m4300 -100 c-3 -3 -12 -4 -19
-1 -8 3 -5 6 6 6 11 1 17 -2 13 -5z m116 -11 c-18 -2 -48 -2 -65 0 -18 2 -4 4
32 4 36 0 50 -2 33 -4z m-4728 -23 c-3 -5 -12 -7 -20 -3 -21 7 -19 13 6 13 11
0 18 -4 14 -10z m-400 -47 c8 -5 -16 -7 -55 -5 -66 4 -70 3 -70 -17 0 -26 -16
-27 -29 -3 -18 33 6 45 77 38 34 -3 69 -9 77 -13z m453 -199 c45 -9 82 -21 82
-25 0 -12 -4 -12 -100 15 -101 29 -95 32 18 10z m87 -464 c4 -6 11 -7 17 -4 7
4 8 2 4 -4 -4 -7 -1 -12 8 -12 8 0 17 -4 21 -10 9 -14 -52 9 -66 26 -7 9 -8
14 -1 14 6 0 14 -5 17 -10z m125 -200 c0 -5 -5 -10 -11 -10 -5 0 -7 5 -4 10 3
6 8 10 11 10 2 0 4 -4 4 -10z m-53 -23 c-8 -5 -2 -7 16 -4 15 2 26 0 25 -5 -4
-11 -7 -12 -58 -3 -49 8 -52 21 -5 21 23 0 30 -3 22 -9z m23 -39 c0 -11 -10
-10 -66 8 -74 25 -74 34 0 16 36 -9 66 -19 66 -24z m-340 -27 c0 -5 -6 -12
-12 -14 -7 -3 -2 -6 12 -6 14 -1 21 -5 15 -9 -13 -9 -16 -42 -3 -42 5 0 6 -5
3 -10 -4 -7 -13 -6 -26 1 -15 8 -24 7 -36 -3 -9 -7 -14 -8 -11 -3 2 6 13 29
23 53 16 38 35 56 35 33z m75 -111 c3 -6 -1 -7 -9 -4 -18 7 -21 14 -7 14 6 0
13 -4 16 -10z m-130 -40 c3 -5 1 -10 -4 -10 -6 0 -11 5 -11 10 0 6 2 10 4 10
3 0 8 -4 11 -10z m-25 -32 c0 -34 -11 -68 -22 -68 -5 0 -4 8 2 19 14 27 13 64
-2 55 -7 -4 -8 -3 -4 4 12 20 26 14 26 -10z m324 1 c-3 -5 -17 -6 -32 -3 -44
11 -45 20 -2 16 22 -2 37 -8 34 -13z m-250 -29 c9 0 16 -4 16 -10 0 -12 -3
-12 -33 -1 -13 5 -27 20 -30 33 l-6 23 19 -22 c10 -13 25 -23 34 -23z m11 20
c3 -5 1 -10 -4 -10 -6 0 -11 5 -11 10 0 6 2 10 4 10 3 0 8 -4 11 -10z m-125
-47 c-11 -17 -11 -17 -6 0 3 10 6 24 7 30 0 9 2 9 5 0 3 -7 0 -20 -6 -30z m93
1 c20 -7 22 -20 5 -28 -7 -3 -1 -4 15 -2 21 2 27 -1 25 -13 -2 -10 5 -17 21
-19 15 -2 21 0 17 7 -4 6 0 11 9 11 9 0 13 -4 10 -10 -3 -5 -1 -10 5 -10 6 0
13 7 16 15 4 8 11 12 16 9 6 -4 13 -2 17 4 5 8 17 5 40 -9 29 -18 33 -24 27
-52 -3 -17 -13 -41 -21 -53 l-15 -23 -53 32 c-30 18 -50 34 -45 35 5 2 20 -3
33 -12 13 -9 28 -16 32 -16 4 0 0 5 -9 11 -10 5 -15 17 -12 27 4 10 2 13 -3 7
-10 -12 -83 -17 -83 -6 0 4 -6 8 -12 8 -19 0 -128 51 -128 59 0 3 6 4 14 1 8
-3 18 5 25 20 6 14 17 22 24 19 6 -3 20 -9 30 -12z m-21183 -84 c-8 -5 -19
-10 -25 -10 -5 0 -3 5 5 10 8 5 20 10 25 10 6 0 3 -5 -5 -10z m21098 -50 c40
-19 72 -40 72 -47 0 -7 6 -10 14 -7 22 8 136 -53 136 -74 0 -22 -31 -69 -59
-88 -22 -16 -46 -10 -35 8 4 6 2 8 -3 5 -6 -4 -40 12 -75 36 -36 23 -90 55
-121 72 -41 21 -57 35 -57 50 0 24 37 88 49 83 4 -2 40 -19 79 -38z m-21098
23 c-8 -3 -24 -10 -35 -16 -18 -9 -19 -9 -6 6 7 10 23 17 35 16 14 0 16 -2 6
-6z m83 0 c-7 -2 -19 -2 -25 0 -7 3 -2 5 12 5 14 0 19 -2 13 -5z m-153 -28
c-7 -9 -10 -19 -6 -22 4 -4 10 -2 14 4 5 8 10 7 19 -2 7 -7 8 -17 2 -26 -7
-11 -9 -10 -10 6 -1 14 -4 10 -9 -10 -7 -29 -8 -29 -10 -5 -2 16 -5 9 -10 -20
-4 -31 -2 -52 8 -68 16 -28 11 -39 -8 -17 -27 32 -9 208 18 180 3 -2 -1 -11
-8 -20z m211 9 c10 -9 15 -23 12 -31 -5 -11 -1 -14 13 -10 34 10 191 17 164 8
-23 -8 -24 -9 -3 -10 12 -1 24 3 27 7 3 5 58 9 123 9 l118 0 -100 -7 c-82 -5
-89 -6 -37 -8 34 -1 62 -6 62 -11 0 -5 32 -12 72 -16 39 -4 77 -13 84 -19 7
-7 40 -12 83 -11 52 1 71 -2 71 -12 0 -11 41 -19 73 -14 4 0 7 -3 7 -9 0 -6
-129 -10 -367 -10 l-368 0 -30 -26 c-55 -48 -137 -69 -175 -44 -13 9 -13 11 0
20 19 12 33 13 25 1 -3 -5 0 -13 6 -17 6 -3 15 0 20 7 13 21 11 27 -12 34 -11
4 -18 9 -15 12 3 3 17 -2 32 -12 21 -14 31 -15 48 -5 12 6 26 10 32 9 18 -3
34 1 34 10 0 5 -11 9 -25 9 -14 0 -28 -4 -31 -9 -3 -5 -13 -9 -22 -9 -12 1 -9
5 10 15 24 13 26 20 24 65 -1 35 -8 54 -21 66 -20 15 -20 16 0 9 39 -13 65
-15 65 -5 0 5 -7 10 -15 10 -8 0 -15 5 -15 10 0 14 11 12 31 -6z m-94 0 c-3
-3 -12 -4 -19 -1 -8 3 -5 6 6 6 11 1 17 -2 13 -5z m-47 -14 c-20 -13 -33 -13
-25 0 3 6 14 10 23 10 15 0 15 -2 2 -10z m2013 -56 c50 -24 81 -76 80 -134 -2
-121 -136 -188 -228 -114 -70 55 -58 54 -400 54 -176 0 -315 -4 -308 -8 6 -4
-29 -5 -78 -4 -76 3 -89 2 -89 -12 0 -9 -6 -16 -12 -17 -10 0 -10 -2 0 -6 6
-2 12 -16 12 -29 0 -21 -4 -24 -40 -24 -38 0 -40 -2 -40 -30 0 -28 2 -30 43
-31 l42 -1 -50 -8 c-27 -4 -64 -10 -81 -14 -26 -6 -32 -4 -37 13 -2 10 0 24 5
29 6 6 5 12 -3 17 -7 5 -10 4 -6 -2 3 -5 -3 -17 -14 -27 -30 -26 -18 -41 36
-44 35 -2 45 -6 35 -12 -10 -6 101 -10 293 -10 169 0 307 4 307 9 0 4 17 20
38 35 29 20 50 26 90 26 47 0 57 -4 94 -38 35 -33 41 -46 45 -88 5 -52 -16
-114 -38 -114 -6 0 -8 -7 -5 -16 3 -9 2 -12 -5 -9 -5 4 -22 -1 -36 -10 -34
-22 -101 -25 -113 -5 -5 8 -24 15 -42 15 -28 0 -33 4 -31 23 2 12 2 22 0 22
-1 1 -130 3 -287 5 -271 3 -277 3 -130 -7 85 -6 207 -11 270 -11 101 0 106 -1
45 -6 -63 -6 -66 -7 -30 -12 25 -4 13 -5 -35 -5 -41 0 -112 0 -157 -2 l-83 -2
0 -45 0 -45 -40 0 c-40 0 -40 0 -40 -38 l0 -39 -122 -6 c-66 -4 -155 -8 -197
-8 -42 -1 -89 -4 -106 -8 l-30 -7 25 -7 c14 -3 26 -2 28 3 2 6 81 9 205 8
l202 -2 -162 -3 c-97 -2 -163 -7 -163 -13 0 -6 91 -10 242 -10 133 0 239 -2
237 -5 -3 -2 -149 -5 -324 -5 -417 -1 -387 -2 -379 12 5 8 2 9 -9 5 -11 -4
-27 3 -44 20 l-28 25 30 -16 30 -17 -23 20 c-12 11 -26 21 -32 23 -7 2 -12 21
-19 69 -1 3 -7 6 -14 6 -11 0 -11 -6 1 -29 8 -16 12 -31 10 -34 -3 -2 -13 13
-22 34 l-18 39 -150 6 c-274 12 -321 10 -348 -15 -50 -47 -105 -71 -146 -63
-36 6 -79 37 -95 67 -16 30 -18 99 -4 134 13 31 59 74 79 74 6 0 4 -5 -4 -10
-11 -7 -7 -10 20 -11 22 -1 28 -3 15 -6 -26 -7 -37 -25 -22 -35 8 -5 7 -8 -4
-8 -16 0 -32 -30 -42 -75 -4 -16 -5 -15 -6 5 -1 19 -4 21 -10 11 -10 -16 7
-63 20 -55 8 5 14 -26 10 -49 -1 -5 2 -6 7 -3 5 3 28 -2 52 -10 35 -12 46 -13
56 -2 20 20 2 43 -22 29 -17 -10 -17 -10 5 -11 13 0 22 -3 18 -6 -9 -9 -88 7
-81 17 3 5 14 9 25 9 11 0 30 5 42 12 12 7 28 12 36 13 8 0 17 7 19 15 5 13 3
13 -13 0 -17 -14 -18 -13 -12 11 10 40 -10 85 -46 103 -20 10 -25 16 -14 16 9
0 17 4 17 9 0 5 10 7 22 3 14 -3 19 -2 14 6 -4 7 -15 12 -24 13 -11 0 -12 2
-4 6 7 3 24 -3 39 -12 20 -14 23 -19 12 -27 -10 -7 -8 -8 9 -5 12 3 25 0 30
-7 15 -25 43 -32 104 -25 34 4 375 8 757 8 383 1 729 4 769 7 l72 7 0 43 c0
23 -6 46 -12 51 -7 4 -274 8 -593 8 l-580 0 -3 24 c-2 12 -1 34 2 47 6 22 11
24 65 24 86 0 121 9 121 31 0 11 -7 19 -16 19 -8 0 -12 5 -9 10 3 6 1 10 -4
10 -6 0 -11 -5 -11 -11 0 -9 -21 -10 -72 -5 -39 3 -74 8 -76 11 -2 2 -2 19 2
38 l6 34 482 6 c265 4 597 7 738 7 284 0 284 0 278 62 l-3 33 -100 5 -100 5
94 7 c83 6 97 10 115 32 46 53 117 70 179 40z m-2116 -26 c-3 -7 -5 -2 -5 12
0 14 2 19 5 13 2 -7 2 -19 0 -25z m40 -30 c-3 -8 -6 -5 -6 6 -1 11 2 17 5 13
3 -3 4 -12 1 -19z m1016 -5 c-7 -2 -19 -2 -25 0 -7 3 -2 5 12 5 14 0 19 -2 13
-5z m227 -12 l135 -8 -162 -1 c-144 -2 -163 0 -163 14 0 13 6 15 28 9 15 -4
88 -10 162 -14z m113 12 c-13 -2 -33 -2 -45 0 -13 2 -3 4 22 4 25 0 35 -2 23
-4z m-1319 -11 c2 -4 -4 -8 -14 -8 -10 0 -16 4 -14 8 3 4 9 8 14 8 5 0 11 -4
14 -8z m21026 -42 c30 -22 57 -45 61 -51 3 -6 10 -11 15 -11 23 -2 83 -36 76
-43 -4 -5 -1 -5 6 -1 15 9 41 -20 42 -46 0 -24 -31 -86 -46 -92 -6 -2 -43 16
-81 40 -37 25 -101 66 -140 91 -40 25 -73 48 -73 52 0 17 61 101 73 101 7 0
38 -18 67 -40z m-21035 10 c3 -5 1 -10 -4 -10 -6 0 -11 5 -11 10 0 6 2 10 4
10 3 0 8 -4 11 -10z m1140 -120 c-3 -5 -13 -10 -21 -10 -8 0 -14 5 -14 10 0 6
9 10 21 10 11 0 17 -4 14 -10z m19758 -52 c23 -13 44 -25 47 -28 3 -3 21 -17
40 -30 19 -13 58 -43 87 -67 49 -41 51 -45 43 -75 -9 -31 -37 -68 -51 -68 -4
0 -14 6 -21 13 -7 8 -25 20 -38 27 -14 7 -47 27 -75 45 -27 17 -71 45 -97 61
-26 16 -47 33 -48 38 0 10 60 106 67 106 2 0 23 -10 46 -22z m-19765 -105
c-21 -2 -55 -2 -75 0 -21 2 -4 4 37 4 41 0 58 -2 38 -4z m175 -20 c-68 -2
-178 -2 -245 0 -68 1 -13 3 122 3 135 0 190 -2 123 -3z m185 0 c-10 -2 -26 -2
-35 0 -10 3 -2 5 17 5 19 0 27 -2 18 -5z m19301 -50 c25 -21 66 -56 89 -78 24
-22 50 -44 58 -48 20 -11 17 -27 -3 -21 -15 5 -15 4 -3 -4 8 -6 17 -9 22 -6 4
3 14 -6 23 -20 15 -22 15 -27 1 -53 -9 -15 -22 -37 -31 -47 -16 -22 -8 -27
-104 64 -14 14 -44 39 -65 55 -100 76 -102 79 -87 120 12 34 39 75 50 75 2 0
25 -17 50 -37z m-4186 -182 c31 -15 58 -38 75 -64 24 -37 27 -50 27 -132 0
-83 -3 -95 -28 -133 -49 -75 -164 -109 -277 -82 -64 15 -123 65 -141 118 -18
52 -15 159 5 204 19 44 71 88 123 105 58 19 160 11 216 -16z m4099 -23 c87
-85 141 -163 134 -193 -4 -14 -14 -29 -22 -32 -45 -17 -244 137 -244 189 0 18
51 88 65 88 7 0 37 -24 67 -52z m-4641 27 c24 -9 56 -28 71 -42 76 -72 75
-238 -1 -314 -48 -48 -91 -59 -238 -59 l-123 0 0 215 0 215 124 0 c86 0 137
-5 167 -15z m944 -100 c16 -65 32 -112 37 -107 5 5 21 57 35 115 l27 107 98 0
98 0 0 -215 0 -215 -70 0 -70 0 -1 133 -1 132 -17 -65 c-10 -36 -26 -95 -36
-132 l-17 -68 -58 0 -58 0 -34 138 -35 137 5 -137 5 -138 -67 0 -66 0 0 215 0
215 99 0 98 0 28 -115z m676 60 c9 -27 42 -120 73 -205 31 -85 56 -158 56
-162 0 -5 -33 -8 -74 -8 -74 0 -75 0 -78 28 -3 27 -3 27 -83 27 -80 0 -80 0
-83 -27 -3 -28 -4 -28 -78 -28 -41 0 -74 2 -74 5 0 3 13 40 29 83 16 42 51
137 78 210 l48 132 84 -2 84 -3 18 -50z m337 -157 l-3 -213 -67 0 c-38 0 -68
3 -68 8 0 4 0 99 0 212 l0 205 70 0 71 0 -3 -212z m302 115 c45 -54 86 -99 91
-101 5 -2 9 42 9 97 l0 101 65 0 65 0 -2 -212 -3 -213 -65 0 -64 0 -77 90
c-43 49 -83 91 -88 93 -7 2 -11 -29 -11 -92 l0 -96 -65 0 -65 0 0 215 0 215
64 0 64 0 82 -97z m-16261 -62 c53 -27 75 -65 75 -126 0 -93 -64 -151 -160
-143 -46 4 -57 10 -92 46 -27 28 -50 42 -69 44 -18 0 -12 3 17 7 43 6 45 8 48
41 3 23 -2 38 -13 46 -16 12 -16 14 2 38 26 35 82 65 121 66 18 0 50 -9 71
-19z m18501 -58 c140 -128 133 -121 116 -139 -20 -20 -20 -28 -1 -20 13 5 14
2 4 -17 -14 -26 -39 -46 -56 -47 -20 0 -203 185 -203 205 0 24 39 85 54 85 7
0 46 -30 86 -67z m-20485 -60 c-11 -2 -37 -11 -58 -20 -28 -12 -34 -19 -25
-26 9 -6 8 -7 -4 -3 -22 7 -24 -10 -2 -18 9 -3 25 0 36 8 19 13 19 14 1 19
-15 4 -15 5 -1 6 29 2 27 -13 -5 -49 -17 -19 -28 -27 -24 -18 3 10 2 20 -3 23
-4 3 -11 -1 -13 -7 -3 -7 -6 -4 -7 7 -1 18 -2 18 -15 -5 -19 -34 -19 -17 0 21
20 38 71 69 110 68 20 -1 23 -3 10 -6z m68 -25 c-13 -22 -12 -38 3 -38 7 0 28
-8 47 -19 29 -16 47 -18 153 -12 l119 6 -132 5 c-115 4 -134 7 -146 24 -9 12
-19 16 -28 11 -11 -6 -11 -5 -2 5 9 10 17 8 39 -9 26 -21 33 -21 548 -23 l521
-3 -370 -5 c-376 -5 -463 -14 -190 -19 83 -2 152 -5 155 -8 3 -3 -87 -4 -200
-2 -113 2 -185 2 -160 0 l45 -5 -45 -7 c-25 -4 3 -5 65 -3 61 3 135 0 165 -5
41 -6 -17 -9 -230 -12 -277 -4 -272 -4 160 -9 l445 -5 -439 -3 c-386 -2 -442
-4 -457 -18 -28 -25 -43 -7 -19 23 11 14 20 32 20 41 0 19 -46 -28 -55 -57 -3
-10 -12 -22 -20 -25 -18 -7 -20 5 -3 22 12 12 20 93 9 88 -4 -1 -16 8 -29 22
l-23 24 23 -7 c13 -4 20 -4 16 0 -4 5 -3 14 3 22 14 16 23 17 12 1z m20259
-50 c56 -56 115 -128 104 -128 -4 0 1 -11 10 -25 14 -21 14 -30 4 -55 -7 -17
-22 -36 -33 -41 -17 -10 -28 -2 -88 62 -37 41 -80 91 -95 111 -23 33 -25 41
-15 69 10 29 36 58 53 59 4 0 31 -24 60 -52z m-20443 -100 l9 -33 2 30 c1 26
3 27 9 10 5 -11 4 -25 -1 -32 -8 -10 -4 -13 13 -14 22 0 22 -1 4 -8 -23 -9
-39 8 -50 52 -10 39 3 33 14 -5z m38 10 c-3 -8 -6 -5 -6 6 -1 11 2 17 5 13 3
-3 4 -12 1 -19z m826 -15 c-112 -2 -294 -2 -405 0 -112 1 -21 2 202 2 223 0
314 -1 203 -2z m290 0 c-7 -2 -19 -2 -25 0 -7 3 -2 5 12 5 14 0 19 -2 13 -5z
m19097 2 c0 -2 -10 -9 -22 -15 -22 -11 -22 -10 -4 4 21 17 26 19 26 11z m20
-15 c0 -5 -5 -10 -11 -10 -5 0 -7 5 -4 10 3 6 8 10 11 10 2 0 4 -4 4 -10z
m-20056 -31 c-21 -24 -30 -24 -30 -1 0 11 9 18 24 19 22 1 22 0 6 -18z m-110
3 c2 -4 1 -14 -3 -21 -6 -9 -11 -10 -15 -2 -4 6 -1 11 6 11 9 0 9 3 -2 10 -9
6 -10 10 -3 10 6 0 14 -4 17 -8z m66 -2 c0 -5 -5 -10 -11 -10 -5 0 -7 5 -4 10
3 6 8 10 11 10 2 0 4 -4 4 -10z m20130 -20 c0 -5 -2 -10 -4 -10 -3 0 -8 5 -11
10 -3 6 -1 10 4 10 6 0 11 -4 11 -10z m-20224 -15 c16 -8 22 -15 13 -15 -8 0
-24 7 -35 15 -25 19 -14 19 22 0z m84 5 c0 -5 -12 -10 -27 -9 -25 0 -26 1 -8
9 27 12 35 12 35 0z m19931 -87 l24 -27 -27 17 c-35 22 -42 21 -33 0 5 -14 4
-15 -6 -6 -10 10 -9 15 1 28 16 19 12 20 41 -12z m259 -113 c10 0 22 5 25 10
3 6 12 10 18 10 21 -1 -26 -30 -48 -30 -21 0 -45 17 -45 33 0 5 7 1 16 -7 8
-9 24 -16 34 -16z m-5670 -50 c8 -5 11 -10 5 -10 -5 0 -17 5 -25 10 -8 5 -10
10 -5 10 6 0 17 -5 25 -10z m80 -69 c20 -14 61 -37 91 -50 136 -59 169 -77
165 -88 -3 -6 3 -14 12 -16 13 -4 12 -5 -4 -6 -12 0 -24 5 -27 13 -7 17 -81
59 -150 84 -47 17 -167 94 -167 108 0 7 38 -14 80 -45z m4953 22 c3 -5 -8 -8
-23 -8 -15 0 -26 3 -23 8 2 4 13 7 23 7 10 0 21 -3 23 -7z m-45 -68 c-3 -3 -9
2 -12 12 -6 14 -5 15 5 6 7 -7 10 -15 7 -18z m392 -75 c0 -16 -12 -37 -31 -56
l-30 -29 -19 25 c-11 14 -20 31 -20 39 0 8 11 0 25 -19 18 -24 25 -29 25 -16
0 9 5 14 10 11 6 -4 10 6 10 22 0 22 2 25 10 13 14 -22 13 24 -1 53 -10 21
-10 21 5 3 9 -11 16 -32 16 -46z m-50 -20 c0 -5 -2 -10 -4 -10 -3 0 -8 5 -11
10 -3 6 -1 10 4 10 6 0 11 -4 11 -10z m-170 -21 c0 -6 -4 -7 -10 -4 -5 3 -10
11 -10 16 0 6 5 7 10 4 6 -3 10 -11 10 -16z m-4646 -111 c-6 -10 -36 5 -54 27
-12 15 -9 14 23 -1 20 -9 34 -21 31 -26z m4681 2 c-14 -22 -65 -41 -83 -31
-15 9 -14 10 8 11 14 0 36 7 50 14 32 18 32 18 25 6z m-4599 -45 c-19 -14 -36
-12 -36 6 0 5 12 9 28 9 26 -1 26 -1 8 -15z m3694 -70 c0 -8 4 -15 8 -15 7 0
22 -26 60 -102 2 -5 1 -8 -2 -8 -3 0 -12 12 -20 28 -9 15 -15 20 -16 12 0 -13
-1 -13 -11 0 -8 12 -10 9 -6 -12 2 -16 0 -28 -5 -28 -10 0 -6 -25 8 -67 6 -14
4 -16 -6 -6 -7 7 -14 36 -15 65 -3 72 -6 80 -15 34 -5 -28 -2 -53 11 -90 25
-68 23 -83 -3 -21 -14 34 -21 71 -21 115 1 57 0 60 -7 25 l-7 -40 -2 43 c0 24
4 52 9 63 13 23 40 26 40 4z m-3320 -153 c0 -8 -6 -12 -14 -9 -8 3 -16 1 -18
-5 -2 -6 -8 -5 -16 4 -9 11 -8 19 6 36 16 20 18 20 30 5 6 -9 12 -23 12 -31z
m3600 -72 c0 -5 -5 -10 -11 -10 -5 0 -7 5 -4 10 3 6 8 10 11 10 2 0 4 -4 4
-10z m-3059 -43 c-13 -13 -26 -3 -16 12 3 6 11 8 17 5 6 -4 6 -10 -1 -17z m54
-25 c-5 -57 -7 -60 -14 -22 -8 40 -3 72 10 65 4 -3 6 -22 4 -43z m2841 -2 c21
0 9 -16 -17 -23 -16 -4 -19 -3 -11 5 6 6 9 16 8 22 -2 6 -1 8 1 4 3 -5 11 -8
19 -8z m-2909 -22 c-3 -7 -5 -2 -5 12 0 14 2 19 5 13 2 -7 2 -19 0 -25z m2848
12 c10 -11 14 -20 8 -20 -5 0 -18 9 -28 20 -10 11 -14 20 -8 20 5 0 18 -9 28
-20z m-1571 -45 c-1 -59 -14 -72 -14 -13 0 36 5 58 14 58 1 0 1 -20 0 -45z
m509 38 c-13 -2 -33 -2 -45 0 -13 2 -3 4 22 4 25 0 35 -2 23 -4z m-1023 -113
c-4 -82 -8 -95 -24 -98 -17 -4 -18 3 -15 86 3 57 9 95 18 106 23 27 27 7 21
-94z m105 1 c-7 -24 -8 -25 -15 -6 -13 32 -12 103 3 108 14 5 22 -62 12 -102z
m211 -12 c2 -110 1 -113 -14 -81 -9 17 -21 32 -28 32 -21 0 -34 35 -34 90 0
35 4 50 13 49 26 -3 37 2 37 17 0 9 6 14 13 11 8 -2 12 -36 13 -118z m-2143
-296 c2 -10 8 -27 12 -38 4 -11 -2 -7 -14 10 -23 32 -26 45 -12 45 5 0 11 -8
14 -17z m5703 -2410 c-10 -10 -19 5 -10 18 6 11 8 11 12 0 2 -7 1 -15 -2 -18z
m967 -260 c-7 -2 -19 -2 -25 0 -7 3 -2 5 12 5 14 0 19 -2 13 -5z m-866 -439
c-3 -3 -12 -4 -19 -1 -8 3 -5 6 6 6 11 1 17 -2 13 -5z m-1390 -90 c-3 -3 -12
-4 -19 -1 -8 3 -5 6 6 6 11 1 17 -2 13 -5z"/>
<path d="M3664 21596 c-3 -8 -4 -23 -1 -33 3 -12 5 -8 6 10 1 19 5 26 13 21 7
-4 8 -3 4 4 -10 16 -15 15 -22 -2z"/>
<path d="M3850 21567 c4 -41 5 -41 8 -8 2 18 0 37 -5 42 -5 5 -6 -11 -3 -34z"/>
<path d="M3662 21500 c13 -20 28 -27 28 -12 0 10 -22 32 -32 32 -5 0 -3 -9 4
-20z"/>
<path d="M3846 21504 c-9 -24 -2 -26 12 -4 7 11 8 20 3 20 -5 0 -12 -7 -15
-16z"/>
<path d="M3708 21473 c7 -3 16 -2 19 1 4 3 -2 6 -13 5 -11 0 -14 -3 -6 -6z"/>
<path d="M3785 21470 c-8 -13 5 -13 25 0 13 8 13 10 -2 10 -9 0 -20 -4 -23
-10z"/>
<path d="M3731 21428 c0 -16 2 -18 6 -8 3 8 11 18 17 22 7 5 4 8 -6 8 -12 0
-18 -7 -17 -22z"/>
<path d="M3593 20605 c0 -22 2 -30 4 -17 2 12 2 30 0 40 -3 9 -5 -1 -4 -23z"/>
<path d="M3763 20600 c0 -25 2 -35 4 -22 2 12 2 32 0 45 -2 12 -4 2 -4 -23z"/>
<path d="M3573 20520 c0 -25 2 -35 4 -22 2 12 2 32 0 45 -2 12 -4 2 -4 -23z"/>
<path d="M3563 20320 c0 -47 2 -66 4 -42 2 23 2 61 0 85 -2 23 -4 4 -4 -43z"/>
<path d="M4268 21323 c6 -2 18 -2 25 0 6 3 1 5 -13 5 -14 0 -19 -2 -12 -5z"/>
<path d="M3468 21178 c-16 -16 -32 -21 -59 -19 -21 1 -40 -2 -42 -6 -7 -11 84
-10 100 0 14 9 37 47 28 47 -3 0 -15 -10 -27 -22z"/>
<path d="M4255 21140 c27 -12 43 -12 25 0 -8 5 -22 9 -30 9 -10 0 -8 -3 5 -9z"/>
<path d="M12640 21039 c-169 -33 -345 -197 -426 -397 -135 -335 -63 -732 173
-953 286 -267 684 -149 852 255 134 323 70 717 -153 941 -130 130 -288 185
-446 154z"/>
<path d="M3957 20973 c-3 -5 -1 -17 4 -28 7 -17 8 -17 8 8 1 27 -4 34 -12 20z"/>
<path d="M4053 20835 c0 -22 2 -30 4 -17 2 12 2 30 0 40 -3 9 -5 -1 -4 -23z"/>
<path d="M3951 20814 c0 -11 3 -14 6 -6 3 7 2 16 -1 19 -3 4 -6 -2 -5 -13z"/>
<path d="M3972 20810 c0 -14 2 -19 5 -12 2 6 2 18 0 25 -3 6 -5 1 -5 -13z"/>
<path d="M4111 20784 c0 -11 3 -14 6 -6 3 7 2 16 -1 19 -3 4 -6 -2 -5 -13z"/>
<path d="M4050 20770 c0 -5 5 -10 11 -10 5 0 7 5 4 10 -3 6 -8 10 -11 10 -2 0
-4 -4 -4 -10z"/>
<path d="M4108 20716 c-3 -14 -1 -31 3 -38 6 -8 9 1 9 25 0 42 -6 48 -12 13z"/>
<path d="M4038 20707 c-3 -19 -2 -25 4 -19 6 6 8 18 6 28 -3 14 -5 12 -10 -9z"/>
<path d="M4092 20660 c0 -14 2 -19 5 -12 2 6 2 18 0 25 -3 6 -5 1 -5 -13z"/>
<path d="M3826 19915 c-61 -62 18 -144 82 -85 27 26 28 40 1 74 -23 29 -59 34
-83 11z m71 -20 c8 -9 13 -18 11 -21 -3 -2 -13 5 -23 16 -21 23 -11 27 12 5z
m-55 -49 c7 4 8 2 4 -4 -4 -7 -2 -12 5 -12 7 0 9 -3 6 -6 -11 -12 -37 18 -36
40 2 20 2 20 6 -2 3 -13 9 -19 15 -16z m32 18 c5 -14 4 -15 -9 -4 -17 14 -19
20 -6 20 5 0 12 -7 15 -16z"/>
<path d="M23506 20493 c-6 -14 -5 -15 5 -6 7 7 10 15 7 18 -3 3 -9 -2 -12 -12z"/>
<path d="M23638 20306 c-3 -14 -2 -26 2 -26 12 0 19 26 10 39 -5 9 -9 4 -12
-13z"/>
<path d="M23805 20180 c-3 -5 -1 -10 4 -10 6 0 11 5 11 10 0 6 -2 10 -4 10 -3
0 -8 -4 -11 -10z"/>
<path d="M7263 20043 c15 -2 37 -2 50 0 12 2 0 4 -28 4 -27 0 -38 -2 -22 -4z"/>
<path d="M3504 19611 c4 -5 -3 -7 -14 -4 -25 7 -49 -21 -50 -58 0 -46 78 -69
108 -31 18 24 15 59 -8 82 -20 20 -46 28 -36 11z"/>
<path d="M4135 19605 c-31 -30 -31 -45 0 -79 27 -29 53 -29 88 2 22 20 22 37
-4 73 -25 35 -52 37 -84 4z m55 0 c0 -2 -6 -5 -13 -8 -8 -3 -14 1 -14 8 0 7 6
11 14 8 7 -3 13 -6 13 -8z m17 -67 c-3 -8 -6 -5 -6 6 -1 11 2 17 5 13 3 -3 4
-12 1 -19z"/>
<path d="M6759 19447 c13 -13 105 -19 131 -9 20 8 9 11 -57 13 -45 2 -79 1
-74 -4z"/>
<path d="M22021 17880 c0 -8 4 -24 9 -35 5 -13 9 -14 9 -5 0 8 -4 24 -9 35 -5
13 -9 14 -9 5z"/>
<path d="M22042 17800 c0 -14 2 -19 5 -12 2 6 2 18 0 25 -3 6 -5 1 -5 -13z"/>
<path d="M8276 17849 c-82 -11 -196 -48 -291 -96 -426 -212 -719 -767 -719
-1358 1 -471 157 -879 448 -1169 71 -71 130 -116 251 -191 49 -30 169 -75 259
-95 83 -19 115 -22 224 -17 197 8 329 52 507 168 99 64 242 207 319 317 212
306 319 721 287 1114 -33 414 -180 761 -429 1016 -243 247 -532 352 -856 311z
m322 -455 c120 -35 232 -105 327 -205 164 -173 250 -360 290 -630 19 -133 19
-176 0 -320 -50 -376 -239 -665 -525 -798 -223 -104 -488 -69 -698 92 -290
224 -437 681 -357 1104 50 261 210 528 393 655 71 49 187 99 264 114 88 16
226 11 306 -12z"/>
<path d="M8269 17365 c-307 -75 -541 -364 -614 -760 -25 -134 -17 -376 18
-507 77 -293 246 -516 472 -624 100 -48 199 -67 310 -60 301 18 548 230 681
582 88 234 86 564 -6 813 -58 160 -118 251 -240 372 -139 136 -291 200 -478
198 -48 0 -112 -7 -143 -14z m322 -124 c157 -49 315 -194 405 -372 163 -324
147 -722 -40 -1023 -60 -96 -191 -221 -277 -263 -165 -82 -357 -83 -513 -3
-396 201 -555 806 -332 1264 164 336 457 490 757 397z"/>
<path d="M8311 17229 c-73 -13 -183 -67 -256 -126 -157 -127 -269 -355 -297
-601 -38 -346 104 -693 352 -861 373 -253 840 6 953 529 31 142 28 341 -6 473
-75 282 -245 492 -463 568 -69 24 -204 33 -283 18z"/>
<path d="M11010 16561 l0 -321 220 0 c292 0 376 20 476 112 65 60 84 104 84
203 0 135 -54 216 -188 282 l-77 38 -257 3 -258 3 0 -320z"/>
<path d="M13765 16875 c-152 -21 -283 -86 -397 -197 -193 -188 -289 -455 -275
-762 15 -326 144 -580 378 -745 158 -113 423 -157 620 -103 298 81 525 346
590 692 16 82 16 279 0 387 -53 366 -321 674 -635 728 -103 17 -157 18 -281 0z
m196 -473 c14 -12 20 -25 16 -35 -9 -23 -135 -25 -143 -2 -8 21 12 43 44 48
52 8 60 7 83 -11z m-145 -19 c-10 -31 8 -42 69 -45 l60 -3 -59 -5 c-45 -4 -63
-1 -77 11 -22 19 -23 25 -6 44 16 19 19 18 13 -2z m-346 -22 c0 -10 -7 -21
-15 -25 -18 -6 -38 -52 -37 -81 1 -14 -5 -20 -21 -20 -22 -1 -21 1 13 72 34
70 60 94 60 54z m118 13 c41 -11 26 -34 -22 -34 -51 0 -69 16 -34 29 29 12 28
12 56 5z m701 -3 c24 -15 1 -31 -45 -31 -31 0 -44 4 -44 14 0 22 62 34 89 17z
m85 -7 c9 -8 16 -26 16 -40 0 -13 4 -24 8 -24 5 0 14 -12 21 -27 10 -21 9 -28
-1 -34 -9 -6 -17 5 -27 39 -14 43 -23 57 -44 65 -7 2 1 37 8 37 2 0 11 -7 19
-16z m-879 -4 c3 -5 1 -10 -4 -10 -6 0 -11 5 -11 10 0 6 2 10 4 10 3 0 8 -4
11 -10z m515 -4 c0 -2 -8 -10 -17 -17 -16 -13 -17 -12 -4 4 13 16 21 21 21 13z
m-495 -66 c-28 -12 -37 -12 -30 0 3 6 16 10 28 9 21 0 21 -1 2 -9z m418 -7
c-13 -2 -33 -2 -45 0 -13 2 -3 4 22 4 25 0 35 -2 23 -4z m336 -72 l24 -43 -78
-152 c-43 -83 -88 -163 -100 -178 -13 -15 -35 -54 -50 -85 -30 -66 -70 -144
-96 -187 l-18 -29 -11 25 c-10 22 -6 36 34 117 41 81 49 91 68 85 14 -4 18 -2
14 5 -15 24 -43 10 -63 -31 l-22 -43 0 39 c-1 48 72 192 101 200 15 3 18 1 13
-12 -3 -9 -9 -29 -12 -44 -4 -23 -2 -28 13 -27 11 0 14 3 7 6 -19 7 -16 22 12
76 14 26 23 53 19 59 -4 6 -3 8 3 5 5 -3 19 14 31 38 16 33 29 46 56 55 20 6
36 16 36 21 0 6 -6 7 -12 2 -7 -4 -76 -7 -153 -7 -133 0 -134 0 -22 -3 64 -2
117 -7 117 -12 0 -5 -8 -15 -17 -22 -15 -12 -16 -12 -10 4 6 15 -2 17 -80 17
-101 0 -106 -10 -6 -14 56 -2 69 -5 71 -20 2 -9 -3 -25 -11 -34 -8 -9 -18 -31
-21 -47 -5 -24 -12 -31 -33 -33 -15 -1 -27 -3 -28 -5 -35 -53 -85 -166 -85
-193 0 -40 -34 -114 -53 -114 -19 0 -68 112 -56 126 7 8 6 14 -1 19 -5 3 -11
0 -11 -7 -7 -57 -6 -79 2 -83 5 -4 6 2 3 12 -5 15 -4 15 4 3 6 -8 9 -17 6 -21
-2 -4 5 -26 16 -48 19 -36 20 -42 7 -67 l-15 -28 -33 64 c-19 35 -44 82 -56
104 -20 37 -20 43 -7 56 14 13 17 12 35 -9 13 -16 19 -19 19 -8 0 25 -29 43
-50 29 -16 -10 -21 -6 -39 24 -12 19 -21 38 -21 41 0 3 -6 11 -14 17 -16 12
-139 236 -133 242 2 2 18 0 35 -5 20 -6 32 -6 32 0 0 5 -7 9 -15 9 -23 0 -65
22 -65 35 0 6 7 20 16 31 10 12 14 14 11 4 -2 -9 12 -27 34 -43 37 -27 40 -28
156 -24 l118 3 -120 2 c-113 2 -122 3 -148 27 -15 14 -27 28 -27 31 0 9 45 74
52 74 4 0 15 -11 24 -25 15 -22 23 -25 80 -25 34 0 66 -5 70 -11 3 -6 15 -9
25 -6 15 4 19 -1 20 -21 2 -25 2 -25 6 -4 3 15 10 22 19 18 8 -3 14 0 14 7 0
8 4 7 11 -3 6 -9 12 -11 15 -4 2 6 18 8 34 6 17 -2 36 0 43 6 7 6 39 13 71 15
46 3 63 9 82 30 14 15 30 24 39 21 8 -4 15 -1 15 6 0 26 36 2 59 -39z m-669
28 c0 -5 6 -7 13 -3 7 4 9 3 4 -2 -5 -5 -14 -9 -19 -9 -6 0 -13 -6 -16 -14 -3
-8 0 -11 7 -7 7 5 9 1 4 -9 -4 -11 -8 -13 -13 -5 -4 7 -13 2 -24 -15 -24 -36
-40 -22 -20 18 9 18 21 38 26 45 13 15 38 16 38 1z m-82 -181 c11 -18 40 -73
66 -121 41 -81 44 -88 24 -85 -16 2 -36 31 -79 113 -32 60 -55 113 -53 117 10
15 22 8 42 -24z m98 -98 c25 -47 53 -98 62 -114 45 -77 132 -237 156 -284 46
-92 23 -79 -27 15 -51 96 -107 198 -156 283 -56 97 -123 236 -102 210 12 -14
41 -63 67 -110z m611 24 c-29 -55 -82 -153 -117 -219 -34 -66 -80 -150 -101
-186 -37 -65 -39 -66 -83 -67 -25 -1 -48 3 -51 9 -5 7 8 10 40 8 54 -4 41 -18
142 171 120 225 215 392 220 387 2 -3 -20 -49 -50 -103z m108 97 c3 -5 -20
-59 -52 -120 -41 -79 -62 -111 -75 -111 -10 0 -18 3 -18 6 0 15 122 234 130
234 5 0 11 -4 15 -9z m49 -41 c-15 -28 -29 -49 -31 -46 -6 5 44 96 53 96 2 0
-8 -23 -22 -50z m-712 -268 c24 -43 26 -51 14 -67 -13 -18 -16 -14 -45 43 -36
72 -36 72 -13 72 10 0 28 -19 44 -48z m528 36 c-1 -7 -14 -37 -29 -67 -27 -52
-29 -54 -40 -33 -9 17 -8 28 5 54 23 45 34 58 50 58 8 0 14 -6 14 -12z m95 2
c3 -5 1 -10 -4 -10 -6 0 -11 5 -11 10 0 6 2 10 4 10 3 0 8 -4 11 -10z m-334
-133 c-10 -9 -11 -8 -5 6 3 10 9 15 12 12 3 -3 0 -11 -7 -18z m-169 -162 c-2
-14 -7 -25 -11 -25 -3 0 -24 36 -45 79 -34 68 -38 82 -26 96 12 14 18 8 50
-54 25 -47 36 -79 32 -96z m286 53 c-22 -43 -44 -78 -49 -78 -28 0 1 90 58
183 3 5 11 0 18 -10 12 -16 8 -28 -27 -95z m-152 17 c-1 -40 -3 -45 -25 -45
-18 0 -22 4 -16 18 4 9 9 26 10 37 1 11 8 19 14 18 6 -2 11 2 11 7 0 6 2 10 3
10 2 0 3 -20 3 -45z m254 -9 c0 -2 -7 -6 -15 -10 -8 -3 -15 -1 -15 4 0 6 7 10
15 10 8 0 15 -2 15 -4z m0 -76 c0 -5 -2 -10 -4 -10 -3 0 -8 5 -11 10 -3 6 -1
10 4 10 6 0 11 -4 11 -10z m-477 -67 c-7 -2 -19 -2 -25 0 -7 3 -2 5 12 5 14 0
19 -2 13 -5z"/>
<path d="M14194 16218 c10 -15 22 -25 27 -22 5 3 6 -3 2 -13 -3 -10 -2 -15 2
-10 5 4 17 -1 28 -10 19 -18 20 -18 4 12 -23 45 -46 73 -47 56 0 -11 -3 -11
-17 0 -14 12 -14 11 1 -13z"/>
<path d="M14209 16139 l-24 -20 28 17 c15 9 27 18 27 20 0 8 -8 4 -31 -17z"/>
<path d="M13654 16076 c-6 -15 54 -156 66 -156 15 0 22 -53 8 -61 -10 -7 -8
-9 6 -9 16 0 17 5 12 33 -4 17 -9 42 -10 54 -4 29 -35 75 -45 68 -5 -3 -9 5
-8 18 0 12 -3 30 -7 39 -7 15 0 16 54 15 34 -1 64 1 66 5 3 5 -27 8 -66 8 -50
0 -72 -4 -76 -14z m65 -125 c0 -14 -1 -14 -6 -1 -3 8 -10 24 -15 35 -9 20 -9
20 6 1 9 -11 16 -27 15 -35z"/>
<path d="M13853 16063 c32 -2 81 -2 110 0 29 2 3 3 -58 3 -60 0 -84 -1 -52 -3z"/>
<path d="M13750 15946 c0 -10 43 -77 47 -73 2 3 -6 21 -18 41 -19 33 -29 43
-29 32z"/>
<path d="M13806 15847 c3 -10 9 -15 12 -12 3 3 0 11 -7 18 -10 9 -11 8 -5 -6z"/>
<path d="M24630 14773 c8 -4 30 -14 48 -24 17 -10 32 -14 32 -9 0 13 -54 40
-77 39 -14 0 -15 -2 -3 -6z"/>
<path d="M24843 14762 c4 -2 0 -10 -10 -18 -14 -10 -15 -13 -3 -13 8 0 24 6
34 14 11 8 15 15 9 15 -6 0 -17 2 -25 3 -7 2 -9 2 -5 -1z"/>
<path d="M24858 14728 c-27 -9 -39 -28 -18 -28 6 0 10 5 10 11 0 5 4 8 9 5 5
-3 14 1 21 9 14 17 15 17 -22 3z"/>
<path d="M24850 14680 c-8 -5 -10 -10 -5 -10 6 0 17 5 25 10 8 5 11 10 5 10
-5 0 -17 -5 -25 -10z"/>
<path d="M24580 14650 c0 -5 7 -10 16 -10 8 0 12 5 9 10 -3 6 -10 10 -16 10
-5 0 -9 -4 -9 -10z"/>
<path d="M24690 14606 c0 -2 7 -6 15 -10 8 -3 15 -1 15 4 0 6 -7 10 -15 10 -8
0 -15 -2 -15 -4z"/>
<path d="M24660 14580 c0 -5 5 -10 11 -10 5 0 7 5 4 10 -3 6 -8 10 -11 10 -2
0 -4 -4 -4 -10z"/>
<path d="M24602 14556 c2 -1 10 -7 19 -14 13 -10 18 -10 22 0 3 8 -5 14 -20
14 -13 1 -23 1 -21 0z"/>
<path d="M3638 14553 c7 -3 16 -2 19 1 4 3 -2 6 -13 5 -11 0 -14 -3 -6 -6z"/>
<path d="M3520 14480 c0 -5 7 -10 16 -10 8 0 12 5 9 10 -3 6 -10 10 -16 10 -5
0 -9 -4 -9 -10z"/>
<path d="M5415 14548 c-50 -27 -59 -75 -20 -113 29 -30 55 -32 86 -7 34 28 31
79 -7 109 -33 26 -32 26 -59 11z"/>
<path d="M3835 14400 c7 -12 42 -12 70 0 15 6 8 9 -28 9 -30 1 -46 -3 -42 -9z"/>
<path d="M4031 14393 c0 -11 3 -13 6 -5 8 21 24 13 21 -10 -2 -16 -12 -25 -33
-29 -29 -6 -29 -6 8 -8 20 0 37 3 37 7 0 11 55 42 75 42 10 0 33 -16 51 -36
19 -19 34 -31 34 -26 0 5 -16 25 -35 45 -34 35 -39 37 -100 37 -56 0 -65 -3
-64 -17z m54 -3 c3 -5 1 -10 -4 -10 -6 0 -11 5 -11 10 0 6 2 10 4 10 3 0 8 -4
11 -10z"/>
<path d="M4408 14403 c6 -2 18 -2 25 0 6 3 1 5 -13 5 -14 0 -19 -2 -12 -5z"/>
<path d="M4000 14392 c0 -8 -29 -13 -87 -14 -69 -1 -77 -3 -38 -7 l50 -5 -55
-6 -55 -7 57 -1 c31 -1 60 3 63 8 3 6 19 10 35 10 28 0 48 15 36 27 -3 4 -6 1
-6 -5z"/>
<path d="M4222 14288 c-7 -7 -12 -18 -12 -25 0 -7 -5 -13 -11 -13 -5 0 -7 -4
-4 -10 3 -6 -4 -10 -17 -10 -27 -1 -64 -25 -50 -34 5 -3 12 -2 16 1 4 4 28 7
54 6 l47 -1 -45 8 -45 7 40 2 c27 1 36 4 26 10 -7 5 -10 14 -6 21 6 9 9 9 15
0 4 -6 7 2 6 19 -1 17 -1 31 -1 31 -1 0 -6 -5 -13 -12z"/>
<path d="M4128 14273 c7 -3 16 -2 19 1 4 3 -2 6 -13 5 -11 0 -14 -3 -6 -6z"/>
<path d="M3985 14260 c-13 -6 -15 -9 -5 -9 8 0 22 4 30 9 18 12 2 12 -25 0z"/>
<path d="M4052 14258 c17 -16 55 -38 65 -38 4 0 -9 11 -29 25 -39 27 -58 33
-36 13z"/>
<path d="M4266 14253 c-6 -14 -5 -15 5 -6 7 7 10 15 7 18 -3 3 -9 -2 -12 -12z"/>
<path d="M3829 14244 c-21 -25 1 -49 47 -50 38 -2 38 -1 4 3 -32 4 -49 17 -50
36 0 5 5 5 12 1 7 -4 8 -3 4 4 -4 7 12 12 51 15 l58 3 -56 2 c-41 1 -60 -2
-70 -14z"/>
<path d="M4298 14203 c7 -3 16 -2 19 1 4 3 -2 6 -13 5 -11 0 -14 -3 -6 -6z"/>
<path d="M5044 14177 c-26 -23 -27 -28 -19 -63 8 -28 17 -40 38 -47 38 -12 73
-2 92 27 14 22 14 28 1 60 -8 20 -21 36 -28 36 -7 0 -22 3 -34 6 -14 4 -31 -3
-50 -19z m53 -3 c-3 -3 -12 -4 -19 -1 -8 3 -5 6 6 6 11 1 17 -2 13 -5z m52
-51 c-2 -27 -2 -27 -6 -3 -3 14 -9 29 -14 35 -16 16 -10 27 6 11 8 -8 14 -27
14 -43z m-22 -5 c-3 -8 -6 -5 -6 6 -1 11 2 17 5 13 3 -3 4 -12 1 -19z m-20
-44 c-3 -3 -12 -4 -19 -1 -8 3 -5 6 6 6 11 1 17 -2 13 -5z"/>
<path d="M3205 14090 c3 -4 14 -10 25 -13 11 -3 18 -2 15 3 -3 4 -14 10 -25
13 -11 3 -18 2 -15 -3z"/>
<path d="M3100 14075 c-7 -9 -10 -18 -7 -21 3 -3 10 4 17 15 13 25 8 27 -10 6z"/>
<path d="M4198 14043 c23 -2 61 -2 85 0 23 2 4 4 -43 4 -47 0 -66 -2 -42 -4z"/>
<path d="M3338 14023 c7 -3 16 -2 19 1 4 3 -2 6 -13 5 -11 0 -14 -3 -6 -6z"/>
<path d="M3528 14023 c6 -2 18 -2 25 0 6 3 1 5 -13 5 -14 0 -19 -2 -12 -5z"/>
<path d="M4208 14023 c23 -2 59 -2 80 0 20 2 1 4 -43 4 -44 0 -61 -2 -37 -4z"/>
<path d="M4528 14023 c23 -2 59 -2 80 0 20 2 1 4 -43 4 -44 0 -61 -2 -37 -4z"/>
<path d="M4668 14023 c12 -2 30 -2 40 0 9 3 -1 5 -23 4 -22 0 -30 -2 -17 -4z"/>
<path d="M4970 14020 c0 -5 5 -10 10 -10 6 0 10 5 10 10 0 6 -4 10 -10 10 -5
0 -10 -4 -10 -10z"/>
<path d="M3528 14003 c7 -3 16 -2 19 1 4 3 -2 6 -13 5 -11 0 -14 -3 -6 -6z"/>
<path d="M3328 13993 c7 -3 16 -2 19 1 4 3 -2 6 -13 5 -11 0 -14 -3 -6 -6z"/>
<path d="M3418 13963 c34 -2 90 -2 125 0 34 2 6 3 -63 3 -69 0 -97 -1 -62 -3z"/>
<path d="M3810 13961 c0 -6 4 -13 10 -16 6 -3 7 1 4 9 -7 18 -14 21 -14 7z"/>
<path d="M3275 13950 c-3 -5 -1 -10 4 -10 6 0 11 5 11 10 0 6 -2 10 -4 10 -3
0 -8 -4 -11 -10z"/>
<path d="M3120 13886 c0 -2 11 -6 25 -8 13 -3 22 -1 19 3 -5 9 -44 13 -44 5z"/>
<path d="M3965 13820 l-30 -8 33 -1 c17 0 32 4 32 9 0 6 -1 9 -2 9 -2 -1 -16
-5 -33 -9z"/>
<path d="M3968 13793 c6 -2 18 -2 25 0 6 3 1 5 -13 5 -14 0 -19 -2 -12 -5z"/>
<path d="M24190 14066 c0 -2 8 -10 18 -17 15 -13 16 -12 3 4 -13 16 -21 21
-21 13z"/>
<path d="M24271 13997 c2 -1 15 -11 29 -22 l25 -20 -19 23 c-11 12 -24 22 -29
22 -6 0 -8 -1 -6 -3z"/>
<path d="M19880 13882 c-21 -17 -25 -30 -28 -90 -4 -65 -2 -73 21 -96 28 -28
82 -35 117 -16 40 22 51 148 16 195 -20 27 -96 32 -126 7z"/>
<path d="M19375 13888 c-3 -8 -4 -59 -3 -114 l3 -99 45 2 c60 3 80 27 80 98 0
65 -13 102 -37 108 -58 17 -83 18 -88 5z"/>
<path d="M21016 13812 c-10 -31 -21 -62 -23 -68 -4 -12 75 -25 82 -14 4 6 -32
130 -39 137 -1 1 -11 -23 -20 -55z"/>
<path d="M5418 13775 c-54 -30 -43 -114 17 -129 32 -8 81 19 89 48 8 30 -39
96 -69 95 -5 0 -22 -6 -37 -14z"/>
<path d="M24110 13670 c0 -5 5 -10 10 -10 6 0 10 5 10 10 0 6 -4 10 -10 10 -5
0 -10 -4 -10 -10z"/>
<path d="M3738 13603 c7 -3 16 -2 19 1 4 3 -2 6 -13 5 -11 0 -14 -3 -6 -6z"/>
<path d="M23885 13480 c3 -5 8 -10 11 -10 2 0 4 5 4 10 0 6 -5 10 -11 10 -5 0
-7 -4 -4 -10z"/>
<path d="M23944 13462 c1 -27 20 -31 23 -5 2 15 1 15 -6 -2 -8 -19 -9 -18 -13
5 -4 21 -5 22 -4 2z"/>
<path d="M22360 12749 c0 -5 5 -7 10 -4 6 3 10 8 10 11 0 2 -4 4 -10 4 -5 0
-10 -5 -10 -11z"/>
<path d="M22387 12713 c4 -11 8 -12 13 -3 6 9 9 9 13 1 4 -8 5 -8 3 0 -1 7 -9
13 -18 15 -11 1 -15 -3 -11 -13z"/>
</g>
</svg>
